<svg version="1.1" xmlns="http://www.w3.org/2000/svg" width="400" height="400"><rect width="100%" height="100%" fill="#000000"></rect><defs><pattern id="primary" x="0" y="0" width="7" height="12.25" patternUnits="userSpaceOnUse"><rect width="7" height="12.25" fill="#57e389"></rect><path transform="scale(0.25)" d="M 12.980469 0 L 12.980469 7.5 L 0 15 L 0 33.509766 L 12.980469 41 L 12.980469 49 L 15 49 L 15 41 L 28 33.5 L 28 15 L 15 7.5 L 15 0 L 12.980469 0 z M 13.990234 9.25 L 26.990234 16.75 L 26.990234 31.75 L 13.990234 39.25 L 1 31.75 L 1 16.75 L 13.990234 9.25 z " fill="black" opacity="0.4"></path></pattern><pattern id="secondary" x="0" y="0" width="7" height="12.25" patternUnits="userSpaceOnUse"><rect width="7" height="12.25" fill="#ed333b"></rect><path transform="scale(0.25)" d="M 12.980469 0 L 12.980469 7.5 L 0 15 L 0 33.509766 L 12.980469 41 L 12.980469 49 L 15 49 L 15 41 L 28 33.5 L 28 15 L 15 7.5 L 15 0 L 12.980469 0 z M 13.990234 9.25 L 26.990234 16.75 L 26.990234 31.75 L 13.990234 39.25 L 1 31.75 L 1 16.75 L 13.990234 9.25 z " fill="black" opacity="0.4"></path></pattern></defs><rect x="10" y="10" width="380" height="380" fill="none" stroke="url(#primary)" stroke-width="2" rx="6" ry="6"></rect><g transform="translate(20, 20) scale(0.25, 0.25)" fill="url(#primary)"><path d="M 45.454545,9.1433453 27.272727,9.0909089 V 45.454545 H 18.181818 L 18.129383,9.0909089 H -5e-7 V -2.5e-7 H 45.454545 Z"></path><path d="M 45.454545,54.545454 V 100 H 36.363636 L 9.0909084,68.18182 V 100 H -5e-7 V 54.545454 h 8.801538 L 36.363636,86.363638 V 54.545454 Z"></path><path d="M 100,54.545454 V 81.818182 H 88.636362 L 100,93.181819 V 100 H 93.181819 L 75,81.818182 H 63.636363 V 100 l -9.090909,-1.9e-5 V 54.545454 Z m -9.09091,9.090909 H 63.636363 v 9.09091 H 90.90909 Z"></path><path d="M 100,-2.5e-7 V 27.272727 H 88.636362 L 100,38.636364 v 6.818181 H 93.181819 L 75,27.272727 H 63.636363 v 18.181818 l -9.090909,-1.9e-5 V -2.5e-7 Z M 90.90909,9.0909089 H 63.636363 V 18.181818 H 90.90909 Z"></path></g><g><text x="62" y="267" font-size="18" font-family="Jura" font-weight="bold" fill="url(#primary)" text-anchor="end">0 </text><line x1="74" y1="262" x2="80" y2="262" stroke-width="2" stroke="url(#primary)" stroke-linecap="round"></line><line x1="329" y1="262" x2="335" y2="262" stroke-width="2" stroke="url(#primary)" stroke-linecap="round"></line></g><g><text x="62" y="292" font-size="18" font-family="Jura" font-weight="bold" fill="url(#primary)" text-anchor="end">-6</text><line x1="74" y1="287" x2="80" y2="287" stroke-width="2" stroke="url(#primary)" stroke-linecap="round"></line><line x1="329" y1="287" x2="335" y2="287" stroke-width="2" stroke="url(#primary)" stroke-linecap="round"></line></g><g><text x="62" y="317" font-size="18" font-family="Jura" font-weight="bold" fill="url(#primary)" text-anchor="end">-inf</text><line x1="74" y1="312" x2="80" y2="312" stroke-width="2" stroke="url(#primary)" stroke-linecap="round"></line><line x1="329" y1="312" x2="335" y2="312" stroke-width="2" stroke="url(#primary)" stroke-linecap="round"></line></g><g><text x="62" y="342" font-size="18" font-family="Jura" font-weight="bold" fill="url(#primary)" text-anchor="end">-6</text><line x1="74" y1="337" x2="80" y2="337" stroke-width="2" stroke="url(#primary)" stroke-linecap="round"></line><line x1="329" y1="337" x2="335" y2="337" stroke-width="2" stroke="url(#primary)" stroke-linecap="round"></line></g><g><text x="62" y="367" font-size="18" font-family="Jura" font-weight="bold" fill="url(#primary)" text-anchor="end">0</text><line x1="74" y1="362" x2="80" y2="362" stroke-width="2" stroke="url(#primary)" stroke-linecap="round"></line><line x1="329" y1="362" x2="335" y2="362" stroke-width="2" stroke="url(#primary)" stroke-linecap="round"></line></g><line x1="80" y1="262" x2="80" y2="362" stroke="url(#primary)" stroke-width="2"></line> <line x1="329" y1="262" x2="329" y2="362" stroke="url(#primary)" stroke-width="2"></line><rect x="84" y="262" width="7" height="4" fill="url(#secondary)" opacity="0.1"></rect><rect x="84" y="268" width="7" height="4" fill="url(#secondary)" opacity="0.1"></rect><rect x="84" y="274" width="7" height="4" fill="url(#secondary)" opacity="0.1"></rect><rect x="84" y="280" width="7" height="4" fill="url(#secondary)" opacity="0.1"></rect><rect x="84" y="286" width="7" height="4" fill="url(#secondary)" opacity="0.1"></rect><rect x="84" y="292" width="7" height="4" fill="url(#secondary)" opacity="0.1"></rect><rect x="84" y="298" width="7" height="4" fill="url(#secondary)" opacity="0.1"></rect><rect x="84" y="304" width="7" height="4" fill="url(#secondary)" opacity="0.1"></rect><rect x="84" y="310" width="7" height="4" fill="url(#secondary)" opacity="0.1"></rect><rect x="84" y="316" width="7" height="4" fill="url(#secondary)" opacity="0.1"></rect><rect x="84" y="322" width="7" height="4" fill="url(#secondary)" opacity="0.1"></rect><rect x="84" y="328" width="7" height="4" fill="url(#secondary)" opacity="0.1"></rect><rect x="84" y="334" width="7" height="4" fill="url(#secondary)" opacity="0.1"></rect><rect x="84" y="340" width="7" height="4" fill="url(#secondary)" opacity="0.1"></rect><rect x="84" y="346" width="7" height="4" fill="url(#secondary)" opacity="0.1"></rect><rect x="84" y="352" width="7" height="4" fill="url(#secondary)" opacity="0.1"></rect><rect x="84" y="358" width="7" height="4" fill="url(#secondary)" opacity="0.1"></rect><rect x="93" y="262" width="7" height="4" fill="url(#secondary)" opacity="0.1"></rect><rect x="93" y="268" width="7" height="4" fill="url(#secondary)" opacity="0.1"></rect><rect x="93" y="274" width="7" height="4" fill="url(#secondary)" opacity="0.1"></rect><rect x="93" y="280" width="7" height="4" fill="url(#secondary)" opacity="0.1"></rect><rect x="93" y="286" width="7" height="4" fill="url(#secondary)" opacity="0.1"></rect><rect x="93" y="292" width="7" height="4" fill="url(#secondary)" opacity="0.1"></rect><rect x="93" y="298" width="7" height="4" fill="url(#secondary)" opacity="0.1"></rect><rect x="93" y="304" width="7" height="4" fill="url(#secondary)" opacity="0.1"></rect><rect x="93" y="310" width="7" height="4" fill="url(#secondary)" opacity="0.1"></rect><rect x="93" y="316" width="7" height="4" fill="url(#secondary)" opacity="0.1"></rect><rect x="93" y="322" width="7" height="4" fill="url(#secondary)" opacity="0.1"></rect><rect x="93" y="328" width="7" height="4" fill="url(#secondary)" opacity="0.1"></rect><rect x="93" y="334" width="7" height="4" fill="url(#secondary)" opacity="0.1"></rect><rect x="93" y="340" width="7" height="4" fill="url(#secondary)" opacity="0.1"></rect><rect x="93" y="346" width="7" height="4" fill="url(#secondary)" opacity="0.1"></rect><rect x="93" y="352" width="7" height="4" fill="url(#secondary)" opacity="0.1"></rect><rect x="93" y="358" width="7" height="4" fill="url(#secondary)" opacity="0.1"></rect><rect x="102" y="262" width="7" height="4" fill="url(#secondary)" opacity="0.1"></rect><rect x="102" y="268" width="7" height="4" fill="url(#secondary)" opacity="0.1"></rect><rect x="102" y="274" width="7" height="4" fill="url(#secondary)" opacity="0.1"></rect><rect x="102" y="280" width="7" height="4" fill="url(#secondary)" opacity="0.1"></rect><rect x="102" y="286" width="7" height="4" fill="url(#secondary)" opacity="0.1"></rect><rect x="102" y="292" width="7" height="4" fill="url(#secondary)" opacity="0.1"></rect><rect x="102" y="298" width="7" height="4" fill="url(#secondary)" opacity="0.1"></rect><rect x="102" y="304" width="7" height="4" fill="url(#secondary)" opacity="0.1"></rect><rect x="102" y="310" width="7" height="4" fill="url(#secondary)" opacity="0.1"></rect><rect x="102" y="316" width="7" height="4" fill="url(#secondary)" opacity="0.1"></rect><rect x="102" y="322" width="7" height="4" fill="url(#secondary)" opacity="0.1"></rect><rect x="102" y="328" width="7" height="4" fill="url(#secondary)" opacity="0.1"></rect><rect x="102" y="334" width="7" height="4" fill="url(#secondary)" opacity="0.1"></rect><rect x="102" y="340" width="7" height="4" fill="url(#secondary)" opacity="0.1"></rect><rect x="102" y="346" width="7" height="4" fill="url(#secondary)" opacity="0.1"></rect><rect x="102" y="352" width="7" height="4" fill="url(#secondary)" opacity="0.1"></rect><rect x="102" y="358" width="7" height="4" fill="url(#secondary)" opacity="0.1"></rect><rect x="111" y="262" width="7" height="4" fill="url(#secondary)" opacity="0.1"></rect><rect x="111" y="268" width="7" height="4" fill="url(#secondary)" opacity="0.1"></rect><rect x="111" y="274" width="7" height="4" fill="url(#secondary)" opacity="0.1"></rect><rect x="111" y="280" width="7" height="4" fill="url(#secondary)" opacity="0.1"></rect><rect x="111" y="286" width="7" height="4" fill="url(#secondary)" opacity="0.1"></rect><rect x="111" y="292" width="7" height="4" fill="url(#secondary)" opacity="0.1"></rect><rect x="111" y="298" width="7" height="4" fill="url(#secondary)" opacity="0.1"></rect><rect x="111" y="304" width="7" height="4" fill="url(#secondary)" opacity="0.1"></rect><rect x="111" y="310" width="7" height="4" fill="url(#secondary)" opacity="0.1"></rect><rect x="111" y="316" width="7" height="4" fill="url(#secondary)" opacity="0.1"></rect><rect x="111" y="322" width="7" height="4" fill="url(#secondary)" opacity="0.1"></rect><rect x="111" y="328" width="7" height="4" fill="url(#secondary)" opacity="0.1"></rect><rect x="111" y="334" width="7" height="4" fill="url(#secondary)" opacity="0.1"></rect><rect x="111" y="340" width="7" height="4" fill="url(#secondary)" opacity="0.1"></rect><rect x="111" y="346" width="7" height="4" fill="url(#secondary)" opacity="0.1"></rect><rect x="111" y="352" width="7" height="4" fill="url(#secondary)" opacity="0.1"></rect><rect x="111" y="358" width="7" height="4" fill="url(#secondary)" opacity="0.1"></rect><rect x="120" y="262" width="7" height="4" fill="url(#secondary)" opacity="0.1"></rect><rect x="120" y="268" width="7" height="4" fill="url(#secondary)" opacity="0.1"></rect><rect x="120" y="274" width="7" height="4" fill="url(#secondary)" opacity="0.1"></rect><rect x="120" y="280" width="7" height="4" fill="url(#secondary)" opacity="0.1"></rect><rect x="120" y="286" width="7" height="4" fill="url(#secondary)" opacity="0.1"></rect><rect x="120" y="292" width="7" height="4" fill="url(#secondary)" opacity="0.1"></rect><rect x="120" y="298" width="7" height="4" fill="url(#secondary)" opacity="0.1"></rect><rect x="120" y="304" width="7" height="4" fill="url(#secondary)" opacity="0.1"></rect><rect x="120" y="310" width="7" height="4" fill="url(#secondary)" opacity="0.1"></rect><rect x="120" y="316" width="7" height="4" fill="url(#secondary)" opacity="0.1"></rect><rect x="120" y="322" width="7" height="4" fill="url(#secondary)" opacity="0.1"></rect><rect x="120" y="328" width="7" height="4" fill="url(#secondary)" opacity="0.1"></rect><rect x="120" y="334" width="7" height="4" fill="url(#secondary)" opacity="0.1"></rect><rect x="120" y="340" width="7" height="4" fill="url(#secondary)" opacity="0.1"></rect><rect x="120" y="346" width="7" height="4" fill="url(#secondary)" opacity="0.1"></rect><rect x="120" y="352" width="7" height="4" fill="url(#secondary)" opacity="0.1"></rect><rect x="120" y="358" width="7" height="4" fill="url(#secondary)" opacity="0.1"></rect><rect x="129" y="262" width="7" height="4" fill="url(#secondary)" opacity="0.1"></rect><rect x="129" y="268" width="7" height="4" fill="url(#secondary)" opacity="0.1"></rect><rect x="129" y="274" width="7" height="4" fill="url(#secondary)" opacity="0.1"></rect><rect x="129" y="280" width="7" height="4" fill="url(#secondary)" opacity="0.1"></rect><rect x="129" y="286" width="7" height="4" fill="url(#secondary)" opacity="0.1"></rect><rect x="129" y="292" width="7" height="4" fill="url(#secondary)" opacity="0.1"></rect><rect x="129" y="298" width="7" height="4" fill="url(#secondary)" opacity="0.1"></rect><rect x="129" y="304" width="7" height="4" fill="url(#secondary)" opacity="0.1"></rect><rect x="129" y="310" width="7" height="4" fill="url(#secondary)" opacity="0.1"></rect><rect x="129" y="316" width="7" height="4" fill="url(#secondary)" opacity="0.1"></rect><rect x="129" y="322" width="7" height="4" fill="url(#secondary)" opacity="0.1"></rect><rect x="129" y="328" width="7" height="4" fill="url(#secondary)" opacity="0.1"></rect><rect x="129" y="334" width="7" height="4" fill="url(#secondary)" opacity="0.1"></rect><rect x="129" y="340" width="7" height="4" fill="url(#secondary)" opacity="0.1"></rect><rect x="129" y="346" width="7" height="4" fill="url(#secondary)" opacity="0.1"></rect><rect x="129" y="352" width="7" height="4" fill="url(#secondary)" opacity="0.1"></rect><rect x="129" y="358" width="7" height="4" fill="url(#secondary)" opacity="0.1"></rect><rect x="138" y="262" width="7" height="4" fill="url(#secondary)" opacity="0.1"></rect><rect x="138" y="268" width="7" height="4" fill="url(#secondary)" opacity="0.1"></rect><rect x="138" y="274" width="7" height="4" fill="url(#secondary)" opacity="0.1"></rect><rect x="138" y="280" width="7" height="4" fill="url(#secondary)" opacity="0.1"></rect><rect x="138" y="286" width="7" height="4" fill="url(#secondary)" opacity="0.1"></rect><rect x="138" y="292" width="7" height="4" fill="url(#secondary)" opacity="0.1"></rect><rect x="138" y="298" width="7" height="4" fill="url(#secondary)" opacity="0.1"></rect><rect x="138" y="304" width="7" height="4" fill="url(#secondary)" opacity="0.1"></rect><rect x="138" y="310" width="7" height="4" fill="url(#secondary)" opacity="0.1"></rect><rect x="138" y="316" width="7" height="4" fill="url(#secondary)" opacity="0.1"></rect><rect x="138" y="322" width="7" height="4" fill="url(#secondary)" opacity="0.1"></rect><rect x="138" y="328" width="7" height="4" fill="url(#secondary)" opacity="0.1"></rect><rect x="138" y="334" width="7" height="4" fill="url(#secondary)" opacity="0.1"></rect><rect x="138" y="340" width="7" height="4" fill="url(#secondary)" opacity="0.1"></rect><rect x="138" y="346" width="7" height="4" fill="url(#secondary)" opacity="0.1"></rect><rect x="138" y="352" width="7" height="4" fill="url(#secondary)" opacity="0.1"></rect><rect x="138" y="358" width="7" height="4" fill="url(#secondary)" opacity="0.1"></rect><rect x="147" y="262" width="7" height="4" fill="url(#secondary)" opacity="0.1"></rect><rect x="147" y="268" width="7" height="4" fill="url(#secondary)" opacity="0.1"></rect><rect x="147" y="274" width="7" height="4" fill="url(#secondary)" opacity="0.1"></rect><rect x="147" y="280" width="7" height="4" fill="url(#secondary)" opacity="0.1"></rect><rect x="147" y="286" width="7" height="4" fill="url(#secondary)" opacity="0.1"></rect><rect x="147" y="292" width="7" height="4" fill="url(#secondary)" opacity="0.1"></rect><rect x="147" y="298" width="7" height="4" fill="url(#secondary)" opacity="0.1"></rect><rect x="147" y="304" width="7" height="4" fill="url(#secondary)" opacity="0.1"></rect><rect x="147" y="310" width="7" height="4" fill="url(#secondary)" opacity="0.1"></rect><rect x="147" y="316" width="7" height="4" fill="url(#secondary)" opacity="0.1"></rect><rect x="147" y="322" width="7" height="4" fill="url(#secondary)" opacity="0.1"></rect><rect x="147" y="328" width="7" height="4" fill="url(#secondary)" opacity="0.1"></rect><rect x="147" y="334" width="7" height="4" fill="url(#secondary)" opacity="0.1"></rect><rect x="147" y="340" width="7" height="4" fill="url(#secondary)" opacity="0.1"></rect><rect x="147" y="346" width="7" height="4" fill="url(#secondary)" opacity="0.1"></rect><rect x="147" y="352" width="7" height="4" fill="url(#secondary)" opacity="0.1"></rect><rect x="147" y="358" width="7" height="4" fill="url(#secondary)" opacity="0.1"></rect><rect x="156" y="262" width="7" height="4" fill="url(#secondary)" opacity="0.1"></rect><rect x="156" y="268" width="7" height="4" fill="url(#secondary)" opacity="0.1"></rect><rect x="156" y="274" width="7" height="4" fill="url(#secondary)" opacity="0.1"></rect><rect x="156" y="280" width="7" height="4" fill="url(#secondary)" opacity="0.1"></rect><rect x="156" y="286" width="7" height="4" fill="url(#secondary)" opacity="0.1"></rect><rect x="156" y="292" width="7" height="4" fill="url(#secondary)" opacity="0.1"></rect><rect x="156" y="298" width="7" height="4" fill="url(#secondary)" opacity="0.1"></rect><rect x="156" y="304" width="7" height="4" fill="url(#secondary)" opacity="0.1"></rect><rect x="156" y="310" width="7" height="4" fill="url(#secondary)" opacity="0.1"></rect><rect x="156" y="316" width="7" height="4" fill="url(#secondary)" opacity="0.1"></rect><rect x="156" y="322" width="7" height="4" fill="url(#secondary)" opacity="0.1"></rect><rect x="156" y="328" width="7" height="4" fill="url(#secondary)" opacity="0.1"></rect><rect x="156" y="334" width="7" height="4" fill="url(#secondary)" opacity="0.1"></rect><rect x="156" y="340" width="7" height="4" fill="url(#secondary)" opacity="0.1"></rect><rect x="156" y="346" width="7" height="4" fill="url(#secondary)" opacity="0.1"></rect><rect x="156" y="352" width="7" height="4" fill="url(#secondary)" opacity="0.1"></rect><rect x="156" y="358" width="7" height="4" fill="url(#secondary)" opacity="0.1"></rect><rect x="165" y="262" width="7" height="4" fill="url(#secondary)" opacity="0.1"></rect><rect x="165" y="268" width="7" height="4" fill="url(#secondary)" opacity="0.1"></rect><rect x="165" y="274" width="7" height="4" fill="url(#secondary)" opacity="0.1"></rect><rect x="165" y="280" width="7" height="4" fill="url(#secondary)" opacity="0.1"></rect><rect x="165" y="286" width="7" height="4" fill="url(#secondary)" opacity="0.1"></rect><rect x="165" y="292" width="7" height="4" fill="url(#secondary)" opacity="0.1"></rect><rect x="165" y="298" width="7" height="4" fill="url(#secondary)" opacity="0.1"></rect><rect x="165" y="304" width="7" height="4" fill="url(#secondary)" opacity="0.1"></rect><rect x="165" y="310" width="7" height="4" fill="url(#secondary)" opacity="0.1"></rect><rect x="165" y="316" width="7" height="4" fill="url(#secondary)" opacity="0.1"></rect><rect x="165" y="322" width="7" height="4" fill="url(#secondary)" opacity="0.1"></rect><rect x="165" y="328" width="7" height="4" fill="url(#secondary)" opacity="0.1"></rect><rect x="165" y="334" width="7" height="4" fill="url(#secondary)" opacity="0.1"></rect><rect x="165" y="340" width="7" height="4" fill="url(#secondary)" opacity="0.1"></rect><rect x="165" y="346" width="7" height="4" fill="url(#secondary)" opacity="0.1"></rect><rect x="165" y="352" width="7" height="4" fill="url(#secondary)" opacity="0.1"></rect><rect x="165" y="358" width="7" height="4" fill="url(#secondary)" opacity="0.1"></rect><rect x="174" y="262" width="7" height="4" fill="url(#secondary)" opacity="0.1"></rect><rect x="174" y="268" width="7" height="4" fill="url(#secondary)" opacity="0.1"></rect><rect x="174" y="274" width="7" height="4" fill="url(#secondary)" opacity="0.1"></rect><rect x="174" y="280" width="7" height="4" fill="url(#secondary)" opacity="0.1"></rect><rect x="174" y="286" width="7" height="4" fill="url(#secondary)" opacity="0.1"></rect><rect x="174" y="292" width="7" height="4" fill="url(#secondary)" opacity="0.1"></rect><rect x="174" y="298" width="7" height="4" fill="url(#secondary)" opacity="0.1"></rect><rect x="174" y="304" width="7" height="4" fill="url(#secondary)" opacity="0.1"></rect><rect x="174" y="310" width="7" height="4" fill="url(#secondary)" opacity="0.1"></rect><rect x="174" y="316" width="7" height="4" fill="url(#secondary)" opacity="0.1"></rect><rect x="174" y="322" width="7" height="4" fill="url(#secondary)" opacity="0.1"></rect><rect x="174" y="328" width="7" height="4" fill="url(#secondary)" opacity="0.1"></rect><rect x="174" y="334" width="7" height="4" fill="url(#secondary)" opacity="0.1"></rect><rect x="174" y="340" width="7" height="4" fill="url(#secondary)" opacity="0.1"></rect><rect x="174" y="346" width="7" height="4" fill="url(#secondary)" opacity="0.1"></rect><rect x="174" y="352" width="7" height="4" fill="url(#secondary)" opacity="0.1"></rect><rect x="174" y="358" width="7" height="4" fill="url(#secondary)" opacity="0.1"></rect><rect x="183" y="262" width="7" height="4" fill="url(#secondary)" opacity="0.1"></rect><rect x="183" y="268" width="7" height="4" fill="url(#secondary)" opacity="0.1"></rect><rect x="183" y="274" width="7" height="4" fill="url(#secondary)" opacity="0.1"></rect><rect x="183" y="280" width="7" height="4" fill="url(#secondary)" opacity="0.1"></rect><rect x="183" y="286" width="7" height="4" fill="url(#secondary)" opacity="0.1"></rect><rect x="183" y="292" width="7" height="4" fill="url(#secondary)" opacity="0.1"></rect><rect x="183" y="298" width="7" height="4" fill="url(#secondary)" opacity="0.1"></rect><rect x="183" y="304" width="7" height="4" fill="url(#secondary)" opacity="0.1"></rect><rect x="183" y="310" width="7" height="4" fill="url(#secondary)" opacity="0.1"></rect><rect x="183" y="316" width="7" height="4" fill="url(#secondary)" opacity="0.1"></rect><rect x="183" y="322" width="7" height="4" fill="url(#secondary)" opacity="0.1"></rect><rect x="183" y="328" width="7" height="4" fill="url(#secondary)" opacity="0.1"></rect><rect x="183" y="334" width="7" height="4" fill="url(#secondary)" opacity="0.1"></rect><rect x="183" y="340" width="7" height="4" fill="url(#secondary)" opacity="0.1"></rect><rect x="183" y="346" width="7" height="4" fill="url(#secondary)" opacity="0.1"></rect><rect x="183" y="352" width="7" height="4" fill="url(#secondary)" opacity="0.1"></rect><rect x="183" y="358" width="7" height="4" fill="url(#secondary)" opacity="0.1"></rect><rect x="192" y="262" width="7" height="4" fill="url(#secondary)" opacity="0.1"></rect><rect x="192" y="268" width="7" height="4" fill="url(#secondary)" opacity="0.1"></rect><rect x="192" y="274" width="7" height="4" fill="url(#secondary)" opacity="0.1"></rect><rect x="192" y="280" width="7" height="4" fill="url(#secondary)" opacity="0.1"></rect><rect x="192" y="286" width="7" height="4" fill="url(#secondary)" opacity="0.1"></rect><rect x="192" y="292" width="7" height="4" fill="url(#secondary)" opacity="0.1"></rect><rect x="192" y="298" width="7" height="4" fill="url(#secondary)" opacity="0.1"></rect><rect x="192" y="304" width="7" height="4" fill="url(#secondary)" opacity="0.1"></rect><rect x="192" y="310" width="7" height="4" fill="url(#secondary)" opacity="0.1"></rect><rect x="192" y="316" width="7" height="4" fill="url(#secondary)" opacity="0.1"></rect><rect x="192" y="322" width="7" height="4" fill="url(#secondary)" opacity="0.1"></rect><rect x="192" y="328" width="7" height="4" fill="url(#secondary)" opacity="0.1"></rect><rect x="192" y="334" width="7" height="4" fill="url(#secondary)" opacity="0.1"></rect><rect x="192" y="340" width="7" height="4" fill="url(#secondary)" opacity="0.1"></rect><rect x="192" y="346" width="7" height="4" fill="url(#secondary)" opacity="0.1"></rect><rect x="192" y="352" width="7" height="4" fill="url(#secondary)" opacity="0.1"></rect><rect x="192" y="358" width="7" height="4" fill="url(#secondary)" opacity="0.1"></rect><rect x="201" y="262" width="7" height="4" fill="url(#secondary)" opacity="0.1"></rect><rect x="201" y="268" width="7" height="4" fill="url(#secondary)" opacity="0.1"></rect><rect x="201" y="274" width="7" height="4" fill="url(#secondary)" opacity="0.1"></rect><rect x="201" y="280" width="7" height="4" fill="url(#secondary)" opacity="0.1"></rect><rect x="201" y="286" width="7" height="4" fill="url(#secondary)" opacity="0.1"></rect><rect x="201" y="292" width="7" height="4" fill="url(#secondary)" opacity="0.1"></rect><rect x="201" y="298" width="7" height="4" fill="url(#secondary)" opacity="0.1"></rect><rect x="201" y="304" width="7" height="4" fill="url(#secondary)" opacity="0.1"></rect><rect x="201" y="310" width="7" height="4" fill="url(#secondary)" opacity="0.1"></rect><rect x="201" y="316" width="7" height="4" fill="url(#secondary)" opacity="0.1"></rect><rect x="201" y="322" width="7" height="4" fill="url(#secondary)" opacity="0.1"></rect><rect x="201" y="328" width="7" height="4" fill="url(#secondary)" opacity="0.1"></rect><rect x="201" y="334" width="7" height="4" fill="url(#secondary)" opacity="0.1"></rect><rect x="201" y="340" width="7" height="4" fill="url(#secondary)" opacity="0.1"></rect><rect x="201" y="346" width="7" height="4" fill="url(#secondary)" opacity="0.1"></rect><rect x="201" y="352" width="7" height="4" fill="url(#secondary)" opacity="0.1"></rect><rect x="201" y="358" width="7" height="4" fill="url(#secondary)" opacity="0.1"></rect><rect x="210" y="262" width="7" height="4" fill="url(#secondary)" opacity="0.1"></rect><rect x="210" y="268" width="7" height="4" fill="url(#secondary)" opacity="0.1"></rect><rect x="210" y="274" width="7" height="4" fill="url(#secondary)" opacity="0.1"></rect><rect x="210" y="280" width="7" height="4" fill="url(#secondary)" opacity="0.1"></rect><rect x="210" y="286" width="7" height="4" fill="url(#secondary)" opacity="0.1"></rect><rect x="210" y="292" width="7" height="4" fill="url(#secondary)" opacity="0.1"></rect><rect x="210" y="298" width="7" height="4" fill="url(#secondary)" opacity="0.1"></rect><rect x="210" y="304" width="7" height="4" fill="url(#secondary)" opacity="0.1"></rect><rect x="210" y="310" width="7" height="4" fill="url(#secondary)" opacity="0.1"></rect><rect x="210" y="316" width="7" height="4" fill="url(#secondary)" opacity="0.1"></rect><rect x="210" y="322" width="7" height="4" fill="url(#secondary)" opacity="0.1"></rect><rect x="210" y="328" width="7" height="4" fill="url(#secondary)" opacity="0.1"></rect><rect x="210" y="334" width="7" height="4" fill="url(#secondary)" opacity="0.1"></rect><rect x="210" y="340" width="7" height="4" fill="url(#secondary)" opacity="0.1"></rect><rect x="210" y="346" width="7" height="4" fill="url(#secondary)" opacity="0.1"></rect><rect x="210" y="352" width="7" height="4" fill="url(#secondary)" opacity="0.1"></rect><rect x="210" y="358" width="7" height="4" fill="url(#secondary)" opacity="0.1"></rect><rect x="219" y="262" width="7" height="4" fill="url(#secondary)" opacity="0.1"></rect><rect x="219" y="268" width="7" height="4" fill="url(#secondary)" opacity="0.1"></rect><rect x="219" y="274" width="7" height="4" fill="url(#secondary)" opacity="0.1"></rect><rect x="219" y="280" width="7" height="4" fill="url(#secondary)" opacity="0.1"></rect><rect x="219" y="286" width="7" height="4" fill="url(#secondary)" opacity="0.1"></rect><rect x="219" y="292" width="7" height="4" fill="url(#secondary)" opacity="0.1"></rect><rect x="219" y="298" width="7" height="4" fill="url(#secondary)" opacity="0.1"></rect><rect x="219" y="304" width="7" height="4" fill="url(#secondary)" opacity="0.1"></rect><rect x="219" y="310" width="7" height="4" fill="url(#secondary)" opacity="0.1"></rect><rect x="219" y="316" width="7" height="4" fill="url(#secondary)" opacity="0.1"></rect><rect x="219" y="322" width="7" height="4" fill="url(#secondary)" opacity="0.1"></rect><rect x="219" y="328" width="7" height="4" fill="url(#secondary)" opacity="0.1"></rect><rect x="219" y="334" width="7" height="4" fill="url(#secondary)" opacity="0.1"></rect><rect x="219" y="340" width="7" height="4" fill="url(#secondary)" opacity="0.1"></rect><rect x="219" y="346" width="7" height="4" fill="url(#secondary)" opacity="0.1"></rect><rect x="219" y="352" width="7" height="4" fill="url(#secondary)" opacity="0.1"></rect><rect x="219" y="358" width="7" height="4" fill="url(#secondary)" opacity="0.1"></rect><rect x="228" y="262" width="7" height="4" fill="url(#secondary)" opacity="0.1"></rect><rect x="228" y="268" width="7" height="4" fill="url(#secondary)" opacity="0.1"></rect><rect x="228" y="274" width="7" height="4" fill="url(#secondary)" opacity="0.1"></rect><rect x="228" y="280" width="7" height="4" fill="url(#secondary)" opacity="0.1"></rect><rect x="228" y="286" width="7" height="4" fill="url(#secondary)" opacity="0.1"></rect><rect x="228" y="292" width="7" height="4" fill="url(#secondary)" opacity="0.1"></rect><rect x="228" y="298" width="7" height="4" fill="url(#secondary)" opacity="0.1"></rect><rect x="228" y="304" width="7" height="4" fill="url(#secondary)" opacity="0.1"></rect><rect x="228" y="310" width="7" height="4" fill="url(#secondary)" opacity="0.1"></rect><rect x="228" y="316" width="7" height="4" fill="url(#secondary)" opacity="0.1"></rect><rect x="228" y="322" width="7" height="4" fill="url(#secondary)" opacity="0.1"></rect><rect x="228" y="328" width="7" height="4" fill="url(#secondary)" opacity="0.1"></rect><rect x="228" y="334" width="7" height="4" fill="url(#secondary)" opacity="0.1"></rect><rect x="228" y="340" width="7" height="4" fill="url(#secondary)" opacity="0.1"></rect><rect x="228" y="346" width="7" height="4" fill="url(#secondary)" opacity="0.1"></rect><rect x="228" y="352" width="7" height="4" fill="url(#secondary)" opacity="0.1"></rect><rect x="228" y="358" width="7" height="4" fill="url(#secondary)" opacity="0.1"></rect><rect x="237" y="262" width="7" height="4" fill="url(#secondary)" opacity="0.1"></rect><rect x="237" y="268" width="7" height="4" fill="url(#secondary)" opacity="0.1"></rect><rect x="237" y="274" width="7" height="4" fill="url(#secondary)" opacity="0.1"></rect><rect x="237" y="280" width="7" height="4" fill="url(#secondary)" opacity="0.1"></rect><rect x="237" y="286" width="7" height="4" fill="url(#secondary)" opacity="0.1"></rect><rect x="237" y="292" width="7" height="4" fill="url(#secondary)" opacity="0.1"></rect><rect x="237" y="298" width="7" height="4" fill="url(#secondary)" opacity="0.1"></rect><rect x="237" y="304" width="7" height="4" fill="url(#secondary)" opacity="0.1"></rect><rect x="237" y="310" width="7" height="4" fill="url(#secondary)" opacity="0.1"></rect><rect x="237" y="316" width="7" height="4" fill="url(#secondary)" opacity="0.1"></rect><rect x="237" y="322" width="7" height="4" fill="url(#secondary)" opacity="0.1"></rect><rect x="237" y="328" width="7" height="4" fill="url(#secondary)" opacity="0.1"></rect><rect x="237" y="334" width="7" height="4" fill="url(#secondary)" opacity="0.1"></rect><rect x="237" y="340" width="7" height="4" fill="url(#secondary)" opacity="0.1"></rect><rect x="237" y="346" width="7" height="4" fill="url(#secondary)" opacity="0.1"></rect><rect x="237" y="352" width="7" height="4" fill="url(#secondary)" opacity="0.1"></rect><rect x="237" y="358" width="7" height="4" fill="url(#secondary)" opacity="0.1"></rect><rect x="246" y="262" width="7" height="4" fill="url(#secondary)" opacity="0.1"></rect><rect x="246" y="268" width="7" height="4" fill="url(#secondary)" opacity="0.1"></rect><rect x="246" y="274" width="7" height="4" fill="url(#secondary)" opacity="0.1"></rect><rect x="246" y="280" width="7" height="4" fill="url(#secondary)" opacity="0.1"></rect><rect x="246" y="286" width="7" height="4" fill="url(#secondary)" opacity="0.1"></rect><rect x="246" y="292" width="7" height="4" fill="url(#secondary)" opacity="0.1"></rect><rect x="246" y="298" width="7" height="4" fill="url(#secondary)" opacity="0.1"></rect><rect x="246" y="304" width="7" height="4" fill="url(#secondary)" opacity="0.1"></rect><rect x="246" y="310" width="7" height="4" fill="url(#secondary)" opacity="0.1"></rect><rect x="246" y="316" width="7" height="4" fill="url(#secondary)" opacity="0.1"></rect><rect x="246" y="322" width="7" height="4" fill="url(#secondary)" opacity="0.1"></rect><rect x="246" y="328" width="7" height="4" fill="url(#secondary)" opacity="0.1"></rect><rect x="246" y="334" width="7" height="4" fill="url(#secondary)" opacity="0.1"></rect><rect x="246" y="340" width="7" height="4" fill="url(#secondary)" opacity="0.1"></rect><rect x="246" y="346" width="7" height="4" fill="url(#secondary)" opacity="0.1"></rect><rect x="246" y="352" width="7" height="4" fill="url(#secondary)" opacity="0.1"></rect><rect x="246" y="358" width="7" height="4" fill="url(#secondary)" opacity="0.1"></rect><rect x="255" y="262" width="7" height="4" fill="url(#secondary)" opacity="0.1"></rect><rect x="255" y="268" width="7" height="4" fill="url(#secondary)" opacity="0.1"></rect><rect x="255" y="274" width="7" height="4" fill="url(#secondary)" opacity="0.1"></rect><rect x="255" y="280" width="7" height="4" fill="url(#secondary)" opacity="0.1"></rect><rect x="255" y="286" width="7" height="4" fill="url(#secondary)" opacity="0.1"></rect><rect x="255" y="292" width="7" height="4" fill="url(#secondary)" opacity="0.1"></rect><rect x="255" y="298" width="7" height="4" fill="url(#secondary)" opacity="0.1"></rect><rect x="255" y="304" width="7" height="4" fill="url(#secondary)" opacity="0.1"></rect><rect x="255" y="310" width="7" height="4" fill="url(#secondary)" opacity="0.1"></rect><rect x="255" y="316" width="7" height="4" fill="url(#secondary)" opacity="0.1"></rect><rect x="255" y="322" width="7" height="4" fill="url(#secondary)" opacity="0.1"></rect><rect x="255" y="328" width="7" height="4" fill="url(#secondary)" opacity="0.1"></rect><rect x="255" y="334" width="7" height="4" fill="url(#secondary)" opacity="0.1"></rect><rect x="255" y="340" width="7" height="4" fill="url(#secondary)" opacity="0.1"></rect><rect x="255" y="346" width="7" height="4" fill="url(#secondary)" opacity="0.1"></rect><rect x="255" y="352" width="7" height="4" fill="url(#secondary)" opacity="0.1"></rect><rect x="255" y="358" width="7" height="4" fill="url(#secondary)" opacity="0.1"></rect><rect x="264" y="262" width="7" height="4" fill="url(#secondary)" opacity="0.1"></rect><rect x="264" y="268" width="7" height="4" fill="url(#secondary)" opacity="0.1"></rect><rect x="264" y="274" width="7" height="4" fill="url(#secondary)" opacity="0.1"></rect><rect x="264" y="280" width="7" height="4" fill="url(#secondary)" opacity="0.1"></rect><rect x="264" y="286" width="7" height="4" fill="url(#secondary)" opacity="0.1"></rect><rect x="264" y="292" width="7" height="4" fill="url(#secondary)" opacity="0.1"></rect><rect x="264" y="298" width="7" height="4" fill="url(#secondary)" opacity="0.1"></rect><rect x="264" y="304" width="7" height="4" fill="url(#secondary)" opacity="0.1"></rect><rect x="264" y="310" width="7" height="4" fill="url(#secondary)" opacity="0.1"></rect><rect x="264" y="316" width="7" height="4" fill="url(#secondary)" opacity="0.1"></rect><rect x="264" y="322" width="7" height="4" fill="url(#secondary)" opacity="0.1"></rect><rect x="264" y="328" width="7" height="4" fill="url(#secondary)" opacity="0.1"></rect><rect x="264" y="334" width="7" height="4" fill="url(#secondary)" opacity="0.1"></rect><rect x="264" y="340" width="7" height="4" fill="url(#secondary)" opacity="0.1"></rect><rect x="264" y="346" width="7" height="4" fill="url(#secondary)" opacity="0.1"></rect><rect x="264" y="352" width="7" height="4" fill="url(#secondary)" opacity="0.1"></rect><rect x="264" y="358" width="7" height="4" fill="url(#secondary)" opacity="0.1"></rect><rect x="273" y="262" width="7" height="4" fill="url(#secondary)" opacity="0.1"></rect><rect x="273" y="268" width="7" height="4" fill="url(#secondary)" opacity="0.1"></rect><rect x="273" y="274" width="7" height="4" fill="url(#secondary)" opacity="0.1"></rect><rect x="273" y="280" width="7" height="4" fill="url(#secondary)" opacity="0.1"></rect><rect x="273" y="286" width="7" height="4" fill="url(#secondary)" opacity="0.1"></rect><rect x="273" y="292" width="7" height="4" fill="url(#secondary)" opacity="0.1"></rect><rect x="273" y="298" width="7" height="4" fill="url(#secondary)" opacity="0.1"></rect><rect x="273" y="304" width="7" height="4" fill="url(#secondary)" opacity="0.1"></rect><rect x="273" y="310" width="7" height="4" fill="url(#secondary)" opacity="0.1"></rect><rect x="273" y="316" width="7" height="4" fill="url(#secondary)" opacity="0.1"></rect><rect x="273" y="322" width="7" height="4" fill="url(#secondary)" opacity="0.1"></rect><rect x="273" y="328" width="7" height="4" fill="url(#secondary)" opacity="0.1"></rect><rect x="273" y="334" width="7" height="4" fill="url(#secondary)" opacity="0.1"></rect><rect x="273" y="340" width="7" height="4" fill="url(#secondary)" opacity="0.1"></rect><rect x="273" y="346" width="7" height="4" fill="url(#secondary)" opacity="0.1"></rect><rect x="273" y="352" width="7" height="4" fill="url(#secondary)" opacity="0.1"></rect><rect x="273" y="358" width="7" height="4" fill="url(#secondary)" opacity="0.1"></rect><rect x="282" y="262" width="7" height="4" fill="url(#secondary)" opacity="0.1"></rect><rect x="282" y="268" width="7" height="4" fill="url(#secondary)" opacity="0.1"></rect><rect x="282" y="274" width="7" height="4" fill="url(#secondary)" opacity="0.1"></rect><rect x="282" y="280" width="7" height="4" fill="url(#secondary)" opacity="0.1"></rect><rect x="282" y="286" width="7" height="4" fill="url(#secondary)" opacity="0.1"></rect><rect x="282" y="292" width="7" height="4" fill="url(#secondary)" opacity="0.1"></rect><rect x="282" y="298" width="7" height="4" fill="url(#secondary)" opacity="0.1"></rect><rect x="282" y="304" width="7" height="4" fill="url(#secondary)" opacity="0.1"></rect><rect x="282" y="310" width="7" height="4" fill="url(#secondary)" opacity="0.1"></rect><rect x="282" y="316" width="7" height="4" fill="url(#secondary)" opacity="0.1"></rect><rect x="282" y="322" width="7" height="4" fill="url(#secondary)" opacity="0.1"></rect><rect x="282" y="328" width="7" height="4" fill="url(#secondary)" opacity="0.1"></rect><rect x="282" y="334" width="7" height="4" fill="url(#secondary)" opacity="0.1"></rect><rect x="282" y="340" width="7" height="4" fill="url(#secondary)" opacity="0.1"></rect><rect x="282" y="346" width="7" height="4" fill="url(#secondary)" opacity="0.1"></rect><rect x="282" y="352" width="7" height="4" fill="url(#secondary)" opacity="0.1"></rect><rect x="282" y="358" width="7" height="4" fill="url(#secondary)" opacity="0.1"></rect><rect x="291" y="262" width="7" height="4" fill="url(#secondary)" opacity="0.1"></rect><rect x="291" y="268" width="7" height="4" fill="url(#secondary)" opacity="0.1"></rect><rect x="291" y="274" width="7" height="4" fill="url(#secondary)" opacity="0.1"></rect><rect x="291" y="280" width="7" height="4" fill="url(#secondary)" opacity="0.1"></rect><rect x="291" y="286" width="7" height="4" fill="url(#secondary)" opacity="0.1"></rect><rect x="291" y="292" width="7" height="4" fill="url(#secondary)" opacity="0.1"></rect><rect x="291" y="298" width="7" height="4" fill="url(#secondary)" opacity="0.1"></rect><rect x="291" y="304" width="7" height="4" fill="url(#secondary)" opacity="0.1"></rect><rect x="291" y="310" width="7" height="4" fill="url(#secondary)" opacity="0.1"></rect><rect x="291" y="316" width="7" height="4" fill="url(#secondary)" opacity="0.1"></rect><rect x="291" y="322" width="7" height="4" fill="url(#secondary)" opacity="0.1"></rect><rect x="291" y="328" width="7" height="4" fill="url(#secondary)" opacity="0.1"></rect><rect x="291" y="334" width="7" height="4" fill="url(#secondary)" opacity="0.1"></rect><rect x="291" y="340" width="7" height="4" fill="url(#secondary)" opacity="0.1"></rect><rect x="291" y="346" width="7" height="4" fill="url(#secondary)" opacity="0.1"></rect><rect x="291" y="352" width="7" height="4" fill="url(#secondary)" opacity="0.1"></rect><rect x="291" y="358" width="7" height="4" fill="url(#secondary)" opacity="0.1"></rect><rect x="300" y="262" width="7" height="4" fill="url(#secondary)" opacity="0.1"></rect><rect x="300" y="268" width="7" height="4" fill="url(#secondary)" opacity="0.1"></rect><rect x="300" y="274" width="7" height="4" fill="url(#secondary)" opacity="0.1"></rect><rect x="300" y="280" width="7" height="4" fill="url(#secondary)" opacity="0.1"></rect><rect x="300" y="286" width="7" height="4" fill="url(#secondary)" opacity="0.1"></rect><rect x="300" y="292" width="7" height="4" fill="url(#secondary)" opacity="0.1"></rect><rect x="300" y="298" width="7" height="4" fill="url(#secondary)" opacity="0.1"></rect><rect x="300" y="304" width="7" height="4" fill="url(#secondary)" opacity="0.1"></rect><rect x="300" y="310" width="7" height="4" fill="url(#secondary)" opacity="0.1"></rect><rect x="300" y="316" width="7" height="4" fill="url(#secondary)" opacity="0.1"></rect><rect x="300" y="322" width="7" height="4" fill="url(#secondary)" opacity="0.1"></rect><rect x="300" y="328" width="7" height="4" fill="url(#secondary)" opacity="0.1"></rect><rect x="300" y="334" width="7" height="4" fill="url(#secondary)" opacity="0.1"></rect><rect x="300" y="340" width="7" height="4" fill="url(#secondary)" opacity="0.1"></rect><rect x="300" y="346" width="7" height="4" fill="url(#secondary)" opacity="0.1"></rect><rect x="300" y="352" width="7" height="4" fill="url(#secondary)" opacity="0.1"></rect><rect x="300" y="358" width="7" height="4" fill="url(#secondary)" opacity="0.1"></rect><rect x="309" y="262" width="7" height="4" fill="url(#secondary)" opacity="0.1"></rect><rect x="309" y="268" width="7" height="4" fill="url(#secondary)" opacity="0.1"></rect><rect x="309" y="274" width="7" height="4" fill="url(#secondary)" opacity="0.1"></rect><rect x="309" y="280" width="7" height="4" fill="url(#secondary)" opacity="0.1"></rect><rect x="309" y="286" width="7" height="4" fill="url(#secondary)" opacity="0.1"></rect><rect x="309" y="292" width="7" height="4" fill="url(#secondary)" opacity="0.1"></rect><rect x="309" y="298" width="7" height="4" fill="url(#secondary)" opacity="0.1"></rect><rect x="309" y="304" width="7" height="4" fill="url(#secondary)" opacity="0.1"></rect><rect x="309" y="310" width="7" height="4" fill="url(#secondary)" opacity="0.1"></rect><rect x="309" y="316" width="7" height="4" fill="url(#secondary)" opacity="0.1"></rect><rect x="309" y="322" width="7" height="4" fill="url(#secondary)" opacity="0.1"></rect><rect x="309" y="328" width="7" height="4" fill="url(#secondary)" opacity="0.1"></rect><rect x="309" y="334" width="7" height="4" fill="url(#secondary)" opacity="0.1"></rect><rect x="309" y="340" width="7" height="4" fill="url(#secondary)" opacity="0.1"></rect><rect x="309" y="346" width="7" height="4" fill="url(#secondary)" opacity="0.1"></rect><rect x="309" y="352" width="7" height="4" fill="url(#secondary)" opacity="0.1"></rect><rect x="309" y="358" width="7" height="4" fill="url(#secondary)" opacity="0.1"></rect><rect x="318" y="262" width="7" height="4" fill="url(#secondary)" opacity="0.1"></rect><rect x="318" y="268" width="7" height="4" fill="url(#secondary)" opacity="0.1"></rect><rect x="318" y="274" width="7" height="4" fill="url(#secondary)" opacity="0.1"></rect><rect x="318" y="280" width="7" height="4" fill="url(#secondary)" opacity="0.1"></rect><rect x="318" y="286" width="7" height="4" fill="url(#secondary)" opacity="0.1"></rect><rect x="318" y="292" width="7" height="4" fill="url(#secondary)" opacity="0.1"></rect><rect x="318" y="298" width="7" height="4" fill="url(#secondary)" opacity="0.1"></rect><rect x="318" y="304" width="7" height="4" fill="url(#secondary)" opacity="0.1"></rect><rect x="318" y="310" width="7" height="4" fill="url(#secondary)" opacity="0.1"></rect><rect x="318" y="316" width="7" height="4" fill="url(#secondary)" opacity="0.1"></rect><rect x="318" y="322" width="7" height="4" fill="url(#secondary)" opacity="0.1"></rect><rect x="318" y="328" width="7" height="4" fill="url(#secondary)" opacity="0.1"></rect><rect x="318" y="334" width="7" height="4" fill="url(#secondary)" opacity="0.1"></rect><rect x="318" y="340" width="7" height="4" fill="url(#secondary)" opacity="0.1"></rect><rect x="318" y="346" width="7" height="4" fill="url(#secondary)" opacity="0.1"></rect><rect x="318" y="352" width="7" height="4" fill="url(#secondary)" opacity="0.1"></rect><rect x="318" y="358" width="7" height="4" fill="url(#secondary)" opacity="0.1"></rect><g><text x="200" y="37" font-size="18" font-family="Jura" font-weight="bold" text-anchor="middle" fill="url(#primary)">DIAL</text><path d="M 261.14388302878535 227.04596148901476 A 85 85 0 1 0 138.85611697121465 227.04596148901476" stroke="url(#primary)" stroke-width="2" fill="none"></path><path d="M 236.6863298172712 203.42757689340885 A 51 51 0 1 0 163.3136701827288 203.42757689340885" stroke="url(#primary)" stroke-width="2" fill="none"></path><line x1="138.95926469012898" y1="227.15258771034672" x2="134.65050690354983" y2="231.3280644899006" stroke-linecap="round" stroke-width="2" stroke="url(#primary)"></line><line x1="121.72813418801276" y1="134.856146538004" x2="116.2030613071666" y2="132.51658041127487" stroke-linecap="round" stroke-width="2" stroke="url(#primary)"></line><line x1="199.99999999999997" y1="83" x2="199.99999999999997" y2="77" stroke-linecap="round" stroke-width="2" stroke="url(#primary)"></line><line x1="278.27186581198725" y1="134.856146538004" x2="283.79693869283335" y2="132.51658041127484" stroke-linecap="round" stroke-width="2" stroke="url(#primary)"></line><line x1="261.0407353098711" y1="227.15258771034672" x2="265.3494930964502" y2="231.32806448990058" stroke-linecap="round" stroke-width="2" stroke="url(#primary)"></line><text x="126.03299133039157" y="239.6790180490084" font-size="18" font-family="Jura" font-weight="bold" text-anchor="end" fill="url(#primary)">0</text><text x="105.15291554547429" y="127.83744815781662" font-size="18" font-family="Jura" font-weight="bold" text-anchor="end" fill="url(#primary)">25</text><text x="199.99999999999997" y="65" font-size="18" font-family="Jura" font-weight="bold" text-anchor="middle" fill="url(#primary)">50</text><text x="294.8470844545257" y="127.8374481578166" font-size="18" font-family="Jura" font-weight="bold" text-anchor="start" fill="url(#primary)">75</text><text x="273.96700866960845" y="239.67901804900836" font-size="18" font-family="Jura" font-weight="bold" text-anchor="start" fill="url(#primary)">100 %</text></g></svg>