<svg version="1.1" xmlns="http://www.w3.org/2000/svg" width="400" height="400"><rect width="100%" height="100%" fill="#000000"></rect><defs><pattern id="primary" x="0" y="0" width="7" height="12.25" patternUnits="userSpaceOnUse"><rect width="7" height="12.25" fill="#57e389"></rect><path transform="scale(0.25)" d="M 12.980469 0 L 12.980469 7.5 L 0 15 L 0 33.509766 L 12.980469 41 L 12.980469 49 L 15 49 L 15 41 L 28 33.5 L 28 15 L 15 7.5 L 15 0 L 12.980469 0 z M 13.990234 9.25 L 26.990234 16.75 L 26.990234 31.75 L 13.990234 39.25 L 1 31.75 L 1 16.75 L 13.990234 9.25 z " fill="black" opacity="0.5"></path></pattern><pattern id="secondary" x="0" y="0" width="7" height="12.25" patternUnits="userSpaceOnUse"><rect width="7" height="12.25" fill="#ed333b"></rect><path transform="scale(0.25)" d="M 12.980469 0 L 12.980469 7.5 L 0 15 L 0 33.509766 L 12.980469 41 L 12.980469 49 L 15 49 L 15 41 L 28 33.5 L 28 15 L 15 7.5 L 15 0 L 12.980469 0 z M 13.990234 9.25 L 26.990234 16.75 L 26.990234 31.75 L 13.990234 39.25 L 1 31.75 L 1 16.75 L 13.990234 9.25 z " fill="black" opacity="0.5"></path></pattern></defs><rect x="10" y="10" width="380" height="380" fill="none" stroke="url(#primary)" stroke-width="2" rx="6" ry="6"></rect><g transform="translate(20, 20) scale(0.25, 0.25)" fill="url(#primary)"><path d="M 45.454545,9.1433453 27.272727,9.0909089 V 45.454545 H 18.181818 L 18.129383,9.0909089 H -5e-7 V -2.5e-7 H 45.454545 Z"></path><path d="M 45.454545,54.545454 V 100 H 36.363636 L 9.0909084,68.18182 V 100 H -5e-7 V 54.545454 h 8.801538 L 36.363636,86.363638 V 54.545454 Z"></path><path d="M 100,54.545454 V 81.818182 H 88.636362 L 100,93.181819 V 100 H 93.181819 L 75,81.818182 H 63.636363 V 100 l -9.090909,-1.9e-5 V 54.545454 Z m -9.09091,9.090909 H 63.636363 v 9.09091 H 90.90909 Z"></path><path d="M 100,-2.5e-7 V 27.272727 H 88.636362 L 100,38.636364 v 6.818181 H 93.181819 L 75,27.272727 H 63.636363 v 18.181818 l -9.090909,-1.9e-5 V -2.5e-7 Z M 90.90909,9.0909089 H 63.636363 V 18.181818 H 90.90909 Z"></path></g><g><text x="200" y="49" font-size="18" font-family="Jura" font-weight="bold" text-anchor="middle" fill="url(#primary)">GAIN</text><path d="M 289.9174750423314 306.8322963073747 A 125 125 0 1 0 110.0825249576686 306.83229630737463" vector-effect="non-scaling-stroke" stroke="url(#primary)" stroke-width="2" fill="none"></path><path d="M 253.95048502539885 272.0993777844248 A 75 75 0 1 0 146.04951497460115 272.0993777844248" vector-effect="non-scaling-stroke" stroke="url(#primary)" stroke-width="2" fill="none"></path><line x1="110.2342127796014" y1="306.9890995740393" x2="105.92545499302229" y2="311.1645763535932" vector-effect="non-scaling-stroke" stroke-linecap="round" stroke-width="2" stroke="url(#primary)"></line><line x1="84.89431498237171" y1="171.2590390264765" x2="79.36924210152556" y2="168.91947289974735" vector-effect="non-scaling-stroke" stroke-linecap="round" stroke-width="2" stroke="url(#primary)"></line><line x1="199.99999999999997" y1="95" x2="199.99999999999997" y2="89" vector-effect="non-scaling-stroke" stroke-linecap="round" stroke-width="2" stroke="url(#primary)"></line><line x1="315.1056850176283" y1="171.25903902647644" x2="320.6307578984744" y2="168.91947289974732" vector-effect="non-scaling-stroke" stroke-linecap="round" stroke-width="2" stroke="url(#primary)"></line><line x1="289.76578722039864" y1="306.9890995740393" x2="294.07454500697776" y2="311.16457635359313" vector-effect="non-scaling-stroke" stroke-linecap="round" stroke-width="2" stroke="url(#primary)"></line><text x="97.30793941986401" y="319.51552991270097" font-size="18" font-family="Jura" font-weight="bold" text-anchor="end" fill="url(#primary)">0</text><text x="68.31909633983324" y="164.2403406462891" font-size="18" font-family="Jura" font-weight="bold" text-anchor="end" fill="url(#primary)">25</text><text x="199.99999999999997" y="77" font-size="18" font-family="Jura" font-weight="bold" text-anchor="middle" fill="url(#primary)">50</text><text x="331.68090366016673" y="164.24034064628904" font-size="18" font-family="Jura" font-weight="bold" text-anchor="start" fill="url(#primary)">75</text><text x="302.692060580136" y="319.5155299127009" font-size="18" font-family="Jura" font-weight="bold" text-anchor="start" fill="url(#primary)">100 %</text></g></svg>