<svg version="1.1" xmlns="http://www.w3.org/2000/svg" width="400" height="400"><rect width="100%" height="100%" fill="#000000"></rect><defs><pattern id="primary" x="0" y="0" width="7" height="12.25" patternUnits="userSpaceOnUse"><rect width="7" height="12.25" fill="#57e389"></rect><path transform="scale(0.25)" d="M 12.980469 0 L 12.980469 7.5 L 0 15 L 0 33.509766 L 12.980469 41 L 12.980469 49 L 15 49 L 15 41 L 28 33.5 L 28 15 L 15 7.5 L 15 0 L 12.980469 0 z M 13.990234 9.25 L 26.990234 16.75 L 26.990234 31.75 L 13.990234 39.25 L 1 31.75 L 1 16.75 L 13.990234 9.25 z " fill="black" opacity="0.4"></path></pattern><pattern id="secondary" x="0" y="0" width="7" height="12.25" patternUnits="userSpaceOnUse"><rect width="7" height="12.25" fill="#ed333b"></rect><path transform="scale(0.25)" d="M 12.980469 0 L 12.980469 7.5 L 0 15 L 0 33.509766 L 12.980469 41 L 12.980469 49 L 15 49 L 15 41 L 28 33.5 L 28 15 L 15 7.5 L 15 0 L 12.980469 0 z M 13.990234 9.25 L 26.990234 16.75 L 26.990234 31.75 L 13.990234 39.25 L 1 31.75 L 1 16.75 L 13.990234 9.25 z " fill="black" opacity="0.4"></path></pattern></defs><rect x="10" y="10" width="380" height="380" fill="none" stroke="url(#primary)" stroke-width="2" rx="6" ry="6"></rect><g transform="translate(20, 20) scale(0.25, 0.25)" fill="url(#primary)"><path d="M 45.454545,9.1433453 27.272727,9.0909089 V 45.454545 H 18.181818 L 18.129383,9.0909089 H -5e-7 V -2.5e-7 H 45.454545 Z"></path><path d="M 45.454545,54.545454 V 100 H 36.363636 L 9.0909084,68.18182 V 100 H -5e-7 V 54.545454 h 8.801538 L 36.363636,86.363638 V 54.545454 Z"></path><path d="M 100,54.545454 V 81.818182 H 88.636362 L 100,93.181819 V 100 H 93.181819 L 75,81.818182 H 63.636363 V 100 l -9.090909,-1.9e-5 V 54.545454 Z m -9.09091,9.090909 H 63.636363 v 9.09091 H 90.90909 Z"></path><path d="M 100,-2.5e-7 V 27.272727 H 88.636362 L 100,38.636364 v 6.818181 H 93.181819 L 75,27.272727 H 63.636363 v 18.181818 l -9.090909,-1.9e-5 V -2.5e-7 Z M 90.90909,9.0909089 H 63.636363 V 18.181818 H 90.90909 Z"></path></g><g><text x="62" y="267" font-size="18" font-family="Jura" font-weight="bold" fill="url(#primary)" text-anchor="end">0 </text><line x1="74" y1="262" x2="80" y2="262" stroke-width="2" stroke="url(#primary)" stroke-linecap="round"></line><line x1="326" y1="262" x2="332" y2="262" stroke-width="2" stroke="url(#primary)" stroke-linecap="round"></line></g><g><text x="62" y="294" font-size="18" font-family="Jura" font-weight="bold" fill="url(#primary)" text-anchor="end">-6</text><line x1="74" y1="289" x2="80" y2="289" stroke-width="2" stroke="url(#primary)" stroke-linecap="round"></line><line x1="326" y1="289" x2="332" y2="289" stroke-width="2" stroke="url(#primary)" stroke-linecap="round"></line></g><g><text x="62" y="321" font-size="18" font-family="Jura" font-weight="bold" fill="url(#primary)" text-anchor="end">-inf</text><line x1="74" y1="316" x2="80" y2="316" stroke-width="2" stroke="url(#primary)" stroke-linecap="round"></line><line x1="326" y1="316" x2="332" y2="316" stroke-width="2" stroke="url(#primary)" stroke-linecap="round"></line></g><g><text x="62" y="348" font-size="18" font-family="Jura" font-weight="bold" fill="url(#primary)" text-anchor="end">-6</text><line x1="74" y1="343" x2="80" y2="343" stroke-width="2" stroke="url(#primary)" stroke-linecap="round"></line><line x1="326" y1="343" x2="332" y2="343" stroke-width="2" stroke="url(#primary)" stroke-linecap="round"></line></g><g><text x="62" y="375" font-size="18" font-family="Jura" font-weight="bold" fill="url(#primary)" text-anchor="end">0</text><line x1="74" y1="370" x2="80" y2="370" stroke-width="2" stroke="url(#primary)" stroke-linecap="round"></line><line x1="326" y1="370" x2="332" y2="370" stroke-width="2" stroke="url(#primary)" stroke-linecap="round"></line></g><line x1="80" y1="262" x2="80" y2="370" stroke="url(#primary)" stroke-width="2"></line> <line x1="326" y1="262" x2="326" y2="370" stroke="url(#primary)" stroke-width="2"></line><polygon fill="url(#primary)" opacity="0.1" points="84,363.1063829787234 94,363.1063829787234 94,370 84,370"></polygon><polygon fill="url(#primary)" opacity="0.1" points="84,353.9148936170213 94,353.9148936170213 94,360.8085106382979 84,360.8085106382979"></polygon><polygon fill="url(#primary)" opacity="0.1" points="84,344.72340425531917 94,344.72340425531917 94,351.6170212765957 84,351.6170212765957"></polygon><polygon fill="url(#primary)" opacity="0.1" points="84,335.531914893617 94,335.531914893617 94,342.4255319148936 84,342.4255319148936"></polygon><polygon fill="url(#primary)" opacity="0.1" points="84,326.3404255319149 94,326.3404255319149 94,333.2340425531915 84,333.2340425531915"></polygon><polygon fill="url(#primary)" opacity="0.1" points="84,317.1489361702128 94,317.1489361702128 94,324.04255319148933 84,324.04255319148933"></polygon><polygon fill="url(#primary)" opacity="0.1" points="84,307.95744680851067 94,307.95744680851067 94,314.8510638297872 84,314.8510638297872"></polygon><polygon fill="url(#primary)" opacity="0.1" points="84,298.7659574468085 94,298.7659574468085 94,305.6595744680851 84,305.6595744680851"></polygon><polygon fill="url(#primary)" opacity="0.1" points="84,289.5744680851064 94,289.5744680851064 94,296.468085106383 84,296.468085106383"></polygon><polygon fill="url(#primary)" opacity="0.1" points="84,280.3829787234043 94,280.3829787234043 94,287.27659574468083 84,287.27659574468083"></polygon><polygon fill="url(#primary)" opacity="0.1" points="84,271.1914893617021 94,271.1914893617021 94,278.0851063829787 84,278.0851063829787"></polygon><polygon fill="url(#primary)" opacity="0.1" points="84,262 94,262 94,268.8936170212766 84,268.8936170212766"></polygon><polygon fill="url(#primary)" opacity="0.1" points="96,363.1063829787234 106,363.1063829787234 106,370 96,370"></polygon><polygon fill="url(#primary)" opacity="0.1" points="96,353.9148936170213 106,353.9148936170213 106,360.8085106382979 96,360.8085106382979"></polygon><polygon fill="url(#primary)" opacity="0.1" points="96,344.72340425531917 106,344.72340425531917 106,351.6170212765957 96,351.6170212765957"></polygon><polygon fill="url(#primary)" opacity="0.1" points="96,335.531914893617 106,335.531914893617 106,342.4255319148936 96,342.4255319148936"></polygon><polygon fill="url(#primary)" opacity="0.1" points="96,326.3404255319149 106,326.3404255319149 106,333.2340425531915 96,333.2340425531915"></polygon><polygon fill="url(#primary)" opacity="0.1" points="96,317.1489361702128 106,317.1489361702128 106,324.04255319148933 96,324.04255319148933"></polygon><polygon fill="url(#primary)" opacity="0.1" points="96,307.95744680851067 106,307.95744680851067 106,314.8510638297872 96,314.8510638297872"></polygon><polygon fill="url(#primary)" opacity="0.1" points="96,298.7659574468085 106,298.7659574468085 106,305.6595744680851 96,305.6595744680851"></polygon><polygon fill="url(#primary)" opacity="0.1" points="96,289.5744680851064 106,289.5744680851064 106,296.468085106383 96,296.468085106383"></polygon><polygon fill="url(#primary)" opacity="0.1" points="96,280.3829787234043 106,280.3829787234043 106,287.27659574468083 96,287.27659574468083"></polygon><polygon fill="url(#primary)" opacity="0.1" points="96,271.1914893617021 106,271.1914893617021 106,278.0851063829787 96,278.0851063829787"></polygon><polygon fill="url(#primary)" opacity="0.1" points="96,262 106,262 106,268.8936170212766 96,268.8936170212766"></polygon><polygon fill="url(#primary)" opacity="0.1" points="108,363.1063829787234 118,363.1063829787234 118,370 108,370"></polygon><polygon fill="url(#primary)" opacity="0.1" points="108,353.9148936170213 118,353.9148936170213 118,360.8085106382979 108,360.8085106382979"></polygon><polygon fill="url(#primary)" opacity="0.1" points="108,344.72340425531917 118,344.72340425531917 118,351.6170212765957 108,351.6170212765957"></polygon><polygon fill="url(#primary)" opacity="0.1" points="108,335.531914893617 118,335.531914893617 118,342.4255319148936 108,342.4255319148936"></polygon><polygon fill="url(#primary)" opacity="0.1" points="108,326.3404255319149 118,326.3404255319149 118,333.2340425531915 108,333.2340425531915"></polygon><polygon fill="url(#primary)" opacity="0.1" points="108,317.1489361702128 118,317.1489361702128 118,324.04255319148933 108,324.04255319148933"></polygon><polygon fill="url(#primary)" opacity="0.1" points="108,307.95744680851067 118,307.95744680851067 118,314.8510638297872 108,314.8510638297872"></polygon><polygon fill="url(#primary)" opacity="0.1" points="108,298.7659574468085 118,298.7659574468085 118,305.6595744680851 108,305.6595744680851"></polygon><polygon fill="url(#primary)" opacity="0.1" points="108,289.5744680851064 118,289.5744680851064 118,296.468085106383 108,296.468085106383"></polygon><polygon fill="url(#primary)" opacity="0.1" points="108,280.3829787234043 118,280.3829787234043 118,287.27659574468083 108,287.27659574468083"></polygon><polygon fill="url(#primary)" opacity="0.1" points="108,271.1914893617021 118,271.1914893617021 118,278.0851063829787 108,278.0851063829787"></polygon><polygon fill="url(#primary)" opacity="0.1" points="108,262 118,262 118,268.8936170212766 108,268.8936170212766"></polygon><polygon fill="url(#primary)" opacity="0.1" points="120,363.1063829787234 130,363.1063829787234 130,370 120,370"></polygon><polygon fill="url(#primary)" opacity="0.1" points="120,353.9148936170213 130,353.9148936170213 130,360.8085106382979 120,360.8085106382979"></polygon><polygon fill="url(#primary)" opacity="0.1" points="120,344.72340425531917 130,344.72340425531917 130,351.6170212765957 120,351.6170212765957"></polygon><polygon fill="url(#primary)" opacity="0.1" points="120,335.531914893617 130,335.531914893617 130,342.4255319148936 120,342.4255319148936"></polygon><polygon fill="url(#primary)" opacity="0.1" points="120,326.3404255319149 130,326.3404255319149 130,333.2340425531915 120,333.2340425531915"></polygon><polygon fill="url(#primary)" opacity="0.1" points="120,317.1489361702128 130,317.1489361702128 130,324.04255319148933 120,324.04255319148933"></polygon><polygon fill="url(#primary)" opacity="0.1" points="120,307.95744680851067 130,307.95744680851067 130,314.8510638297872 120,314.8510638297872"></polygon><polygon fill="url(#primary)" opacity="0.1" points="120,298.7659574468085 130,298.7659574468085 130,305.6595744680851 120,305.6595744680851"></polygon><polygon fill="url(#primary)" opacity="0.1" points="120,289.5744680851064 130,289.5744680851064 130,296.468085106383 120,296.468085106383"></polygon><polygon fill="url(#primary)" opacity="0.1" points="120,280.3829787234043 130,280.3829787234043 130,287.27659574468083 120,287.27659574468083"></polygon><polygon fill="url(#primary)" opacity="0.1" points="120,271.1914893617021 130,271.1914893617021 130,278.0851063829787 120,278.0851063829787"></polygon><polygon fill="url(#primary)" opacity="0.1" points="120,262 130,262 130,268.8936170212766 120,268.8936170212766"></polygon><polygon fill="url(#primary)" opacity="0.1" points="132,363.1063829787234 142,363.1063829787234 142,370 132,370"></polygon><polygon fill="url(#primary)" opacity="0.1" points="132,353.9148936170213 142,353.9148936170213 142,360.8085106382979 132,360.8085106382979"></polygon><polygon fill="url(#primary)" opacity="0.1" points="132,344.72340425531917 142,344.72340425531917 142,351.6170212765957 132,351.6170212765957"></polygon><polygon fill="url(#primary)" opacity="0.1" points="132,335.531914893617 142,335.531914893617 142,342.4255319148936 132,342.4255319148936"></polygon><polygon fill="url(#primary)" opacity="0.1" points="132,326.3404255319149 142,326.3404255319149 142,333.2340425531915 132,333.2340425531915"></polygon><polygon fill="url(#primary)" opacity="0.1" points="132,317.1489361702128 142,317.1489361702128 142,324.04255319148933 132,324.04255319148933"></polygon><polygon fill="url(#primary)" opacity="0.1" points="132,307.95744680851067 142,307.95744680851067 142,314.8510638297872 132,314.8510638297872"></polygon><polygon fill="url(#primary)" opacity="0.1" points="132,298.7659574468085 142,298.7659574468085 142,305.6595744680851 132,305.6595744680851"></polygon><polygon fill="url(#primary)" opacity="0.1" points="132,289.5744680851064 142,289.5744680851064 142,296.468085106383 132,296.468085106383"></polygon><polygon fill="url(#primary)" opacity="0.1" points="132,280.3829787234043 142,280.3829787234043 142,287.27659574468083 132,287.27659574468083"></polygon><polygon fill="url(#primary)" opacity="0.1" points="132,271.1914893617021 142,271.1914893617021 142,278.0851063829787 132,278.0851063829787"></polygon><polygon fill="url(#primary)" opacity="0.1" points="132,262 142,262 142,268.8936170212766 132,268.8936170212766"></polygon><polygon fill="url(#primary)" opacity="0.1" points="144,363.1063829787234 154,363.1063829787234 154,370 144,370"></polygon><polygon fill="url(#primary)" opacity="0.1" points="144,353.9148936170213 154,353.9148936170213 154,360.8085106382979 144,360.8085106382979"></polygon><polygon fill="url(#primary)" opacity="0.1" points="144,344.72340425531917 154,344.72340425531917 154,351.6170212765957 144,351.6170212765957"></polygon><polygon fill="url(#primary)" opacity="0.1" points="144,335.531914893617 154,335.531914893617 154,342.4255319148936 144,342.4255319148936"></polygon><polygon fill="url(#primary)" opacity="0.1" points="144,326.3404255319149 154,326.3404255319149 154,333.2340425531915 144,333.2340425531915"></polygon><polygon fill="url(#primary)" opacity="0.1" points="144,317.1489361702128 154,317.1489361702128 154,324.04255319148933 144,324.04255319148933"></polygon><polygon fill="url(#primary)" opacity="0.1" points="144,307.95744680851067 154,307.95744680851067 154,314.8510638297872 144,314.8510638297872"></polygon><polygon fill="url(#primary)" opacity="0.1" points="144,298.7659574468085 154,298.7659574468085 154,305.6595744680851 144,305.6595744680851"></polygon><polygon fill="url(#primary)" opacity="0.1" points="144,289.5744680851064 154,289.5744680851064 154,296.468085106383 144,296.468085106383"></polygon><polygon fill="url(#primary)" opacity="0.1" points="144,280.3829787234043 154,280.3829787234043 154,287.27659574468083 144,287.27659574468083"></polygon><polygon fill="url(#primary)" opacity="0.1" points="144,271.1914893617021 154,271.1914893617021 154,278.0851063829787 144,278.0851063829787"></polygon><polygon fill="url(#primary)" opacity="0.1" points="144,262 154,262 154,268.8936170212766 144,268.8936170212766"></polygon><polygon fill="url(#primary)" opacity="0.1" points="156,363.1063829787234 166,363.1063829787234 166,370 156,370"></polygon><polygon fill="url(#primary)" opacity="0.1" points="156,353.9148936170213 166,353.9148936170213 166,360.8085106382979 156,360.8085106382979"></polygon><polygon fill="url(#primary)" opacity="0.1" points="156,344.72340425531917 166,344.72340425531917 166,351.6170212765957 156,351.6170212765957"></polygon><polygon fill="url(#primary)" opacity="0.1" points="156,335.531914893617 166,335.531914893617 166,342.4255319148936 156,342.4255319148936"></polygon><polygon fill="url(#primary)" opacity="0.1" points="156,326.3404255319149 166,326.3404255319149 166,333.2340425531915 156,333.2340425531915"></polygon><polygon fill="url(#primary)" opacity="0.1" points="156,317.1489361702128 166,317.1489361702128 166,324.04255319148933 156,324.04255319148933"></polygon><polygon fill="url(#primary)" opacity="0.1" points="156,307.95744680851067 166,307.95744680851067 166,314.8510638297872 156,314.8510638297872"></polygon><polygon fill="url(#primary)" opacity="0.1" points="156,298.7659574468085 166,298.7659574468085 166,305.6595744680851 156,305.6595744680851"></polygon><polygon fill="url(#primary)" opacity="0.1" points="156,289.5744680851064 166,289.5744680851064 166,296.468085106383 156,296.468085106383"></polygon><polygon fill="url(#primary)" opacity="0.1" points="156,280.3829787234043 166,280.3829787234043 166,287.27659574468083 156,287.27659574468083"></polygon><polygon fill="url(#primary)" opacity="0.1" points="156,271.1914893617021 166,271.1914893617021 166,278.0851063829787 156,278.0851063829787"></polygon><polygon fill="url(#primary)" opacity="0.1" points="156,262 166,262 166,268.8936170212766 156,268.8936170212766"></polygon><polygon fill="url(#primary)" opacity="0.1" points="168,363.1063829787234 178,363.1063829787234 178,370 168,370"></polygon><polygon fill="url(#primary)" opacity="0.1" points="168,353.9148936170213 178,353.9148936170213 178,360.8085106382979 168,360.8085106382979"></polygon><polygon fill="url(#primary)" opacity="0.1" points="168,344.72340425531917 178,344.72340425531917 178,351.6170212765957 168,351.6170212765957"></polygon><polygon fill="url(#primary)" opacity="0.1" points="168,335.531914893617 178,335.531914893617 178,342.4255319148936 168,342.4255319148936"></polygon><polygon fill="url(#primary)" opacity="0.1" points="168,326.3404255319149 178,326.3404255319149 178,333.2340425531915 168,333.2340425531915"></polygon><polygon fill="url(#primary)" opacity="0.1" points="168,317.1489361702128 178,317.1489361702128 178,324.04255319148933 168,324.04255319148933"></polygon><polygon fill="url(#primary)" opacity="0.1" points="168,307.95744680851067 178,307.95744680851067 178,314.8510638297872 168,314.8510638297872"></polygon><polygon fill="url(#primary)" opacity="0.1" points="168,298.7659574468085 178,298.7659574468085 178,305.6595744680851 168,305.6595744680851"></polygon><polygon fill="url(#primary)" opacity="0.1" points="168,289.5744680851064 178,289.5744680851064 178,296.468085106383 168,296.468085106383"></polygon><polygon fill="url(#primary)" opacity="0.1" points="168,280.3829787234043 178,280.3829787234043 178,287.27659574468083 168,287.27659574468083"></polygon><polygon fill="url(#primary)" opacity="0.1" points="168,271.1914893617021 178,271.1914893617021 178,278.0851063829787 168,278.0851063829787"></polygon><polygon fill="url(#primary)" opacity="0.1" points="168,262 178,262 178,268.8936170212766 168,268.8936170212766"></polygon><polygon fill="url(#primary)" opacity="0.1" points="180,363.1063829787234 190,363.1063829787234 190,370 180,370"></polygon><polygon fill="url(#primary)" opacity="0.1" points="180,353.9148936170213 190,353.9148936170213 190,360.8085106382979 180,360.8085106382979"></polygon><polygon fill="url(#primary)" opacity="0.1" points="180,344.72340425531917 190,344.72340425531917 190,351.6170212765957 180,351.6170212765957"></polygon><polygon fill="url(#primary)" opacity="0.1" points="180,335.531914893617 190,335.531914893617 190,342.4255319148936 180,342.4255319148936"></polygon><polygon fill="url(#primary)" opacity="0.1" points="180,326.3404255319149 190,326.3404255319149 190,333.2340425531915 180,333.2340425531915"></polygon><polygon fill="url(#primary)" opacity="0.1" points="180,317.1489361702128 190,317.1489361702128 190,324.04255319148933 180,324.04255319148933"></polygon><polygon fill="url(#primary)" opacity="0.1" points="180,307.95744680851067 190,307.95744680851067 190,314.8510638297872 180,314.8510638297872"></polygon><polygon fill="url(#primary)" opacity="0.1" points="180,298.7659574468085 190,298.7659574468085 190,305.6595744680851 180,305.6595744680851"></polygon><polygon fill="url(#primary)" opacity="0.1" points="180,289.5744680851064 190,289.5744680851064 190,296.468085106383 180,296.468085106383"></polygon><polygon fill="url(#primary)" opacity="0.1" points="180,280.3829787234043 190,280.3829787234043 190,287.27659574468083 180,287.27659574468083"></polygon><polygon fill="url(#primary)" opacity="0.1" points="180,271.1914893617021 190,271.1914893617021 190,278.0851063829787 180,278.0851063829787"></polygon><polygon fill="url(#primary)" opacity="0.1" points="180,262 190,262 190,268.8936170212766 180,268.8936170212766"></polygon><polygon fill="url(#primary)" opacity="0.1" points="192,363.1063829787234 202,363.1063829787234 202,370 192,370"></polygon><polygon fill="url(#primary)" opacity="0.1" points="192,353.9148936170213 202,353.9148936170213 202,360.8085106382979 192,360.8085106382979"></polygon><polygon fill="url(#primary)" opacity="0.1" points="192,344.72340425531917 202,344.72340425531917 202,351.6170212765957 192,351.6170212765957"></polygon><polygon fill="url(#primary)" opacity="0.1" points="192,335.531914893617 202,335.531914893617 202,342.4255319148936 192,342.4255319148936"></polygon><polygon fill="url(#primary)" opacity="0.1" points="192,326.3404255319149 202,326.3404255319149 202,333.2340425531915 192,333.2340425531915"></polygon><polygon fill="url(#primary)" opacity="0.1" points="192,317.1489361702128 202,317.1489361702128 202,324.04255319148933 192,324.04255319148933"></polygon><polygon fill="url(#primary)" opacity="0.1" points="192,307.95744680851067 202,307.95744680851067 202,314.8510638297872 192,314.8510638297872"></polygon><polygon fill="url(#primary)" opacity="0.1" points="192,298.7659574468085 202,298.7659574468085 202,305.6595744680851 192,305.6595744680851"></polygon><polygon fill="url(#primary)" opacity="0.1" points="192,289.5744680851064 202,289.5744680851064 202,296.468085106383 192,296.468085106383"></polygon><polygon fill="url(#primary)" opacity="0.1" points="192,280.3829787234043 202,280.3829787234043 202,287.27659574468083 192,287.27659574468083"></polygon><polygon fill="url(#primary)" opacity="0.1" points="192,271.1914893617021 202,271.1914893617021 202,278.0851063829787 192,278.0851063829787"></polygon><polygon fill="url(#primary)" opacity="0.1" points="192,262 202,262 202,268.8936170212766 192,268.8936170212766"></polygon><polygon fill="url(#primary)" opacity="0.1" points="204,363.1063829787234 214,363.1063829787234 214,370 204,370"></polygon><polygon fill="url(#primary)" opacity="0.1" points="204,353.9148936170213 214,353.9148936170213 214,360.8085106382979 204,360.8085106382979"></polygon><polygon fill="url(#primary)" opacity="0.1" points="204,344.72340425531917 214,344.72340425531917 214,351.6170212765957 204,351.6170212765957"></polygon><polygon fill="url(#primary)" opacity="0.1" points="204,335.531914893617 214,335.531914893617 214,342.4255319148936 204,342.4255319148936"></polygon><polygon fill="url(#primary)" opacity="0.1" points="204,326.3404255319149 214,326.3404255319149 214,333.2340425531915 204,333.2340425531915"></polygon><polygon fill="url(#primary)" opacity="0.1" points="204,317.1489361702128 214,317.1489361702128 214,324.04255319148933 204,324.04255319148933"></polygon><polygon fill="url(#primary)" opacity="0.1" points="204,307.95744680851067 214,307.95744680851067 214,314.8510638297872 204,314.8510638297872"></polygon><polygon fill="url(#primary)" opacity="0.1" points="204,298.7659574468085 214,298.7659574468085 214,305.6595744680851 204,305.6595744680851"></polygon><polygon fill="url(#primary)" opacity="0.1" points="204,289.5744680851064 214,289.5744680851064 214,296.468085106383 204,296.468085106383"></polygon><polygon fill="url(#primary)" opacity="0.1" points="204,280.3829787234043 214,280.3829787234043 214,287.27659574468083 204,287.27659574468083"></polygon><polygon fill="url(#primary)" opacity="0.1" points="204,271.1914893617021 214,271.1914893617021 214,278.0851063829787 204,278.0851063829787"></polygon><polygon fill="url(#primary)" opacity="0.1" points="204,262 214,262 214,268.8936170212766 204,268.8936170212766"></polygon><polygon fill="url(#primary)" opacity="0.1" points="216,363.1063829787234 226,363.1063829787234 226,370 216,370"></polygon><polygon fill="url(#primary)" opacity="0.1" points="216,353.9148936170213 226,353.9148936170213 226,360.8085106382979 216,360.8085106382979"></polygon><polygon fill="url(#primary)" opacity="0.1" points="216,344.72340425531917 226,344.72340425531917 226,351.6170212765957 216,351.6170212765957"></polygon><polygon fill="url(#primary)" opacity="0.1" points="216,335.531914893617 226,335.531914893617 226,342.4255319148936 216,342.4255319148936"></polygon><polygon fill="url(#primary)" opacity="0.1" points="216,326.3404255319149 226,326.3404255319149 226,333.2340425531915 216,333.2340425531915"></polygon><polygon fill="url(#primary)" opacity="0.1" points="216,317.1489361702128 226,317.1489361702128 226,324.04255319148933 216,324.04255319148933"></polygon><polygon fill="url(#primary)" opacity="0.1" points="216,307.95744680851067 226,307.95744680851067 226,314.8510638297872 216,314.8510638297872"></polygon><polygon fill="url(#primary)" opacity="0.1" points="216,298.7659574468085 226,298.7659574468085 226,305.6595744680851 216,305.6595744680851"></polygon><polygon fill="url(#primary)" opacity="0.1" points="216,289.5744680851064 226,289.5744680851064 226,296.468085106383 216,296.468085106383"></polygon><polygon fill="url(#primary)" opacity="0.1" points="216,280.3829787234043 226,280.3829787234043 226,287.27659574468083 216,287.27659574468083"></polygon><polygon fill="url(#primary)" opacity="0.1" points="216,271.1914893617021 226,271.1914893617021 226,278.0851063829787 216,278.0851063829787"></polygon><polygon fill="url(#primary)" opacity="0.1" points="216,262 226,262 226,268.8936170212766 216,268.8936170212766"></polygon><polygon fill="url(#primary)" opacity="0.1" points="228,363.1063829787234 238,363.1063829787234 238,370 228,370"></polygon><polygon fill="url(#primary)" opacity="0.1" points="228,353.9148936170213 238,353.9148936170213 238,360.8085106382979 228,360.8085106382979"></polygon><polygon fill="url(#primary)" opacity="0.1" points="228,344.72340425531917 238,344.72340425531917 238,351.6170212765957 228,351.6170212765957"></polygon><polygon fill="url(#primary)" opacity="0.1" points="228,335.531914893617 238,335.531914893617 238,342.4255319148936 228,342.4255319148936"></polygon><polygon fill="url(#primary)" opacity="0.1" points="228,326.3404255319149 238,326.3404255319149 238,333.2340425531915 228,333.2340425531915"></polygon><polygon fill="url(#primary)" opacity="0.1" points="228,317.1489361702128 238,317.1489361702128 238,324.04255319148933 228,324.04255319148933"></polygon><polygon fill="url(#primary)" opacity="0.1" points="228,307.95744680851067 238,307.95744680851067 238,314.8510638297872 228,314.8510638297872"></polygon><polygon fill="url(#primary)" opacity="0.1" points="228,298.7659574468085 238,298.7659574468085 238,305.6595744680851 228,305.6595744680851"></polygon><polygon fill="url(#primary)" opacity="0.1" points="228,289.5744680851064 238,289.5744680851064 238,296.468085106383 228,296.468085106383"></polygon><polygon fill="url(#primary)" opacity="0.1" points="228,280.3829787234043 238,280.3829787234043 238,287.27659574468083 228,287.27659574468083"></polygon><polygon fill="url(#primary)" opacity="0.1" points="228,271.1914893617021 238,271.1914893617021 238,278.0851063829787 228,278.0851063829787"></polygon><polygon fill="url(#primary)" opacity="0.1" points="228,262 238,262 238,268.8936170212766 228,268.8936170212766"></polygon><polygon fill="url(#primary)" opacity="0.1" points="240,363.1063829787234 250,363.1063829787234 250,370 240,370"></polygon><polygon fill="url(#primary)" opacity="0.1" points="240,353.9148936170213 250,353.9148936170213 250,360.8085106382979 240,360.8085106382979"></polygon><polygon fill="url(#primary)" opacity="0.1" points="240,344.72340425531917 250,344.72340425531917 250,351.6170212765957 240,351.6170212765957"></polygon><polygon fill="url(#primary)" opacity="0.1" points="240,335.531914893617 250,335.531914893617 250,342.4255319148936 240,342.4255319148936"></polygon><polygon fill="url(#primary)" opacity="0.1" points="240,326.3404255319149 250,326.3404255319149 250,333.2340425531915 240,333.2340425531915"></polygon><polygon fill="url(#primary)" opacity="0.1" points="240,317.1489361702128 250,317.1489361702128 250,324.04255319148933 240,324.04255319148933"></polygon><polygon fill="url(#primary)" opacity="0.1" points="240,307.95744680851067 250,307.95744680851067 250,314.8510638297872 240,314.8510638297872"></polygon><polygon fill="url(#primary)" opacity="0.1" points="240,298.7659574468085 250,298.7659574468085 250,305.6595744680851 240,305.6595744680851"></polygon><polygon fill="url(#primary)" opacity="0.1" points="240,289.5744680851064 250,289.5744680851064 250,296.468085106383 240,296.468085106383"></polygon><polygon fill="url(#primary)" opacity="0.1" points="240,280.3829787234043 250,280.3829787234043 250,287.27659574468083 240,287.27659574468083"></polygon><polygon fill="url(#primary)" opacity="0.1" points="240,271.1914893617021 250,271.1914893617021 250,278.0851063829787 240,278.0851063829787"></polygon><polygon fill="url(#primary)" opacity="0.1" points="240,262 250,262 250,268.8936170212766 240,268.8936170212766"></polygon><polygon fill="url(#primary)" opacity="0.1" points="252,363.1063829787234 262,363.1063829787234 262,370 252,370"></polygon><polygon fill="url(#primary)" opacity="0.1" points="252,353.9148936170213 262,353.9148936170213 262,360.8085106382979 252,360.8085106382979"></polygon><polygon fill="url(#primary)" opacity="0.1" points="252,344.72340425531917 262,344.72340425531917 262,351.6170212765957 252,351.6170212765957"></polygon><polygon fill="url(#primary)" opacity="0.1" points="252,335.531914893617 262,335.531914893617 262,342.4255319148936 252,342.4255319148936"></polygon><polygon fill="url(#primary)" opacity="0.1" points="252,326.3404255319149 262,326.3404255319149 262,333.2340425531915 252,333.2340425531915"></polygon><polygon fill="url(#primary)" opacity="0.1" points="252,317.1489361702128 262,317.1489361702128 262,324.04255319148933 252,324.04255319148933"></polygon><polygon fill="url(#primary)" opacity="0.1" points="252,307.95744680851067 262,307.95744680851067 262,314.8510638297872 252,314.8510638297872"></polygon><polygon fill="url(#primary)" opacity="0.1" points="252,298.7659574468085 262,298.7659574468085 262,305.6595744680851 252,305.6595744680851"></polygon><polygon fill="url(#primary)" opacity="0.1" points="252,289.5744680851064 262,289.5744680851064 262,296.468085106383 252,296.468085106383"></polygon><polygon fill="url(#primary)" opacity="0.1" points="252,280.3829787234043 262,280.3829787234043 262,287.27659574468083 252,287.27659574468083"></polygon><polygon fill="url(#primary)" opacity="0.1" points="252,271.1914893617021 262,271.1914893617021 262,278.0851063829787 252,278.0851063829787"></polygon><polygon fill="url(#primary)" opacity="0.1" points="252,262 262,262 262,268.8936170212766 252,268.8936170212766"></polygon><polygon fill="url(#primary)" opacity="0.1" points="264,363.1063829787234 274,363.1063829787234 274,370 264,370"></polygon><polygon fill="url(#primary)" opacity="0.1" points="264,353.9148936170213 274,353.9148936170213 274,360.8085106382979 264,360.8085106382979"></polygon><polygon fill="url(#primary)" opacity="0.1" points="264,344.72340425531917 274,344.72340425531917 274,351.6170212765957 264,351.6170212765957"></polygon><polygon fill="url(#primary)" opacity="0.1" points="264,335.531914893617 274,335.531914893617 274,342.4255319148936 264,342.4255319148936"></polygon><polygon fill="url(#primary)" opacity="0.1" points="264,326.3404255319149 274,326.3404255319149 274,333.2340425531915 264,333.2340425531915"></polygon><polygon fill="url(#primary)" opacity="0.1" points="264,317.1489361702128 274,317.1489361702128 274,324.04255319148933 264,324.04255319148933"></polygon><polygon fill="url(#primary)" opacity="0.1" points="264,307.95744680851067 274,307.95744680851067 274,314.8510638297872 264,314.8510638297872"></polygon><polygon fill="url(#primary)" opacity="0.1" points="264,298.7659574468085 274,298.7659574468085 274,305.6595744680851 264,305.6595744680851"></polygon><polygon fill="url(#primary)" opacity="0.1" points="264,289.5744680851064 274,289.5744680851064 274,296.468085106383 264,296.468085106383"></polygon><polygon fill="url(#primary)" opacity="0.1" points="264,280.3829787234043 274,280.3829787234043 274,287.27659574468083 264,287.27659574468083"></polygon><polygon fill="url(#primary)" opacity="0.1" points="264,271.1914893617021 274,271.1914893617021 274,278.0851063829787 264,278.0851063829787"></polygon><polygon fill="url(#primary)" opacity="0.1" points="264,262 274,262 274,268.8936170212766 264,268.8936170212766"></polygon><polygon fill="url(#primary)" opacity="0.1" points="276,363.1063829787234 286,363.1063829787234 286,370 276,370"></polygon><polygon fill="url(#primary)" opacity="0.1" points="276,353.9148936170213 286,353.9148936170213 286,360.8085106382979 276,360.8085106382979"></polygon><polygon fill="url(#primary)" opacity="0.1" points="276,344.72340425531917 286,344.72340425531917 286,351.6170212765957 276,351.6170212765957"></polygon><polygon fill="url(#primary)" opacity="0.1" points="276,335.531914893617 286,335.531914893617 286,342.4255319148936 276,342.4255319148936"></polygon><polygon fill="url(#primary)" opacity="0.1" points="276,326.3404255319149 286,326.3404255319149 286,333.2340425531915 276,333.2340425531915"></polygon><polygon fill="url(#primary)" opacity="0.1" points="276,317.1489361702128 286,317.1489361702128 286,324.04255319148933 276,324.04255319148933"></polygon><polygon fill="url(#primary)" opacity="0.1" points="276,307.95744680851067 286,307.95744680851067 286,314.8510638297872 276,314.8510638297872"></polygon><polygon fill="url(#primary)" opacity="0.1" points="276,298.7659574468085 286,298.7659574468085 286,305.6595744680851 276,305.6595744680851"></polygon><polygon fill="url(#primary)" opacity="0.1" points="276,289.5744680851064 286,289.5744680851064 286,296.468085106383 276,296.468085106383"></polygon><polygon fill="url(#primary)" opacity="0.1" points="276,280.3829787234043 286,280.3829787234043 286,287.27659574468083 276,287.27659574468083"></polygon><polygon fill="url(#primary)" opacity="0.1" points="276,271.1914893617021 286,271.1914893617021 286,278.0851063829787 276,278.0851063829787"></polygon><polygon fill="url(#primary)" opacity="0.1" points="276,262 286,262 286,268.8936170212766 276,268.8936170212766"></polygon><polygon fill="url(#primary)" opacity="0.1" points="288,363.1063829787234 298,363.1063829787234 298,370 288,370"></polygon><polygon fill="url(#primary)" opacity="0.1" points="288,353.9148936170213 298,353.9148936170213 298,360.8085106382979 288,360.8085106382979"></polygon><polygon fill="url(#primary)" opacity="0.1" points="288,344.72340425531917 298,344.72340425531917 298,351.6170212765957 288,351.6170212765957"></polygon><polygon fill="url(#primary)" opacity="0.1" points="288,335.531914893617 298,335.531914893617 298,342.4255319148936 288,342.4255319148936"></polygon><polygon fill="url(#primary)" opacity="0.1" points="288,326.3404255319149 298,326.3404255319149 298,333.2340425531915 288,333.2340425531915"></polygon><polygon fill="url(#primary)" opacity="0.1" points="288,317.1489361702128 298,317.1489361702128 298,324.04255319148933 288,324.04255319148933"></polygon><polygon fill="url(#primary)" opacity="0.1" points="288,307.95744680851067 298,307.95744680851067 298,314.8510638297872 288,314.8510638297872"></polygon><polygon fill="url(#primary)" opacity="0.1" points="288,298.7659574468085 298,298.7659574468085 298,305.6595744680851 288,305.6595744680851"></polygon><polygon fill="url(#primary)" opacity="0.1" points="288,289.5744680851064 298,289.5744680851064 298,296.468085106383 288,296.468085106383"></polygon><polygon fill="url(#primary)" opacity="0.1" points="288,280.3829787234043 298,280.3829787234043 298,287.27659574468083 288,287.27659574468083"></polygon><polygon fill="url(#primary)" opacity="0.1" points="288,271.1914893617021 298,271.1914893617021 298,278.0851063829787 288,278.0851063829787"></polygon><polygon fill="url(#primary)" opacity="0.1" points="288,262 298,262 298,268.8936170212766 288,268.8936170212766"></polygon><polygon fill="url(#primary)" opacity="0.1" points="300,363.1063829787234 310,363.1063829787234 310,370 300,370"></polygon><polygon fill="url(#primary)" opacity="0.1" points="300,353.9148936170213 310,353.9148936170213 310,360.8085106382979 300,360.8085106382979"></polygon><polygon fill="url(#primary)" opacity="0.1" points="300,344.72340425531917 310,344.72340425531917 310,351.6170212765957 300,351.6170212765957"></polygon><polygon fill="url(#primary)" opacity="0.1" points="300,335.531914893617 310,335.531914893617 310,342.4255319148936 300,342.4255319148936"></polygon><polygon fill="url(#primary)" opacity="0.1" points="300,326.3404255319149 310,326.3404255319149 310,333.2340425531915 300,333.2340425531915"></polygon><polygon fill="url(#primary)" opacity="0.1" points="300,317.1489361702128 310,317.1489361702128 310,324.04255319148933 300,324.04255319148933"></polygon><polygon fill="url(#primary)" opacity="0.1" points="300,307.95744680851067 310,307.95744680851067 310,314.8510638297872 300,314.8510638297872"></polygon><polygon fill="url(#primary)" opacity="0.1" points="300,298.7659574468085 310,298.7659574468085 310,305.6595744680851 300,305.6595744680851"></polygon><polygon fill="url(#primary)" opacity="0.1" points="300,289.5744680851064 310,289.5744680851064 310,296.468085106383 300,296.468085106383"></polygon><polygon fill="url(#primary)" opacity="0.1" points="300,280.3829787234043 310,280.3829787234043 310,287.27659574468083 300,287.27659574468083"></polygon><polygon fill="url(#primary)" opacity="0.1" points="300,271.1914893617021 310,271.1914893617021 310,278.0851063829787 300,278.0851063829787"></polygon><polygon fill="url(#primary)" opacity="0.1" points="300,262 310,262 310,268.8936170212766 300,268.8936170212766"></polygon><polygon fill="url(#primary)" opacity="0.1" points="312,363.1063829787234 322,363.1063829787234 322,370 312,370"></polygon><polygon fill="url(#primary)" opacity="0.1" points="312,353.9148936170213 322,353.9148936170213 322,360.8085106382979 312,360.8085106382979"></polygon><polygon fill="url(#primary)" opacity="0.1" points="312,344.72340425531917 322,344.72340425531917 322,351.6170212765957 312,351.6170212765957"></polygon><polygon fill="url(#primary)" opacity="0.1" points="312,335.531914893617 322,335.531914893617 322,342.4255319148936 312,342.4255319148936"></polygon><polygon fill="url(#primary)" opacity="0.1" points="312,326.3404255319149 322,326.3404255319149 322,333.2340425531915 312,333.2340425531915"></polygon><polygon fill="url(#primary)" opacity="0.1" points="312,317.1489361702128 322,317.1489361702128 322,324.04255319148933 312,324.04255319148933"></polygon><polygon fill="url(#primary)" opacity="0.1" points="312,307.95744680851067 322,307.95744680851067 322,314.8510638297872 312,314.8510638297872"></polygon><polygon fill="url(#primary)" opacity="0.1" points="312,298.7659574468085 322,298.7659574468085 322,305.6595744680851 312,305.6595744680851"></polygon><polygon fill="url(#primary)" opacity="0.1" points="312,289.5744680851064 322,289.5744680851064 322,296.468085106383 312,296.468085106383"></polygon><polygon fill="url(#primary)" opacity="0.1" points="312,280.3829787234043 322,280.3829787234043 322,287.27659574468083 312,287.27659574468083"></polygon><polygon fill="url(#primary)" opacity="0.1" points="312,271.1914893617021 322,271.1914893617021 322,278.0851063829787 312,278.0851063829787"></polygon><polygon fill="url(#primary)" opacity="0.1" points="312,262 322,262 322,268.8936170212766 312,268.8936170212766"></polygon><g><text x="200" y="37" font-size="18" font-family="Jura" font-weight="bold" text-anchor="middle" fill="url(#primary)">DIAL</text><path d="M 261.14388302878535 227.04596148901476 A 85 85 0 1 0 138.85611697121465 227.04596148901476" stroke="url(#primary)" stroke-width="2" fill="none"></path><path d="M 236.6863298172712 203.42757689340885 A 51 51 0 1 0 163.3136701827288 203.42757689340885" stroke="url(#primary)" stroke-width="2" fill="none"></path><line x1="138.95926469012898" y1="227.15258771034672" x2="134.65050690354983" y2="231.3280644899006" stroke-linecap="round" stroke-width="2" stroke="url(#primary)"></line><line x1="121.72813418801276" y1="134.856146538004" x2="116.2030613071666" y2="132.51658041127487" stroke-linecap="round" stroke-width="2" stroke="url(#primary)"></line><line x1="199.99999999999997" y1="83" x2="199.99999999999997" y2="77" stroke-linecap="round" stroke-width="2" stroke="url(#primary)"></line><line x1="278.27186581198725" y1="134.856146538004" x2="283.79693869283335" y2="132.51658041127484" stroke-linecap="round" stroke-width="2" stroke="url(#primary)"></line><line x1="261.0407353098711" y1="227.15258771034672" x2="265.3494930964502" y2="231.32806448990058" stroke-linecap="round" stroke-width="2" stroke="url(#primary)"></line><text x="126.03299133039157" y="239.6790180490084" font-size="18" font-family="Jura" font-weight="bold" text-anchor="end" fill="url(#primary)">0</text><text x="105.15291554547429" y="127.83744815781662" font-size="18" font-family="Jura" font-weight="bold" text-anchor="end" fill="url(#primary)">25</text><text x="199.99999999999997" y="65" font-size="18" font-family="Jura" font-weight="bold" text-anchor="middle" fill="url(#primary)">50</text><text x="294.8470844545257" y="127.8374481578166" font-size="18" font-family="Jura" font-weight="bold" text-anchor="start" fill="url(#primary)">75</text><text x="273.96700866960845" y="239.67901804900836" font-size="18" font-family="Jura" font-weight="bold" text-anchor="start" fill="url(#primary)">100 %</text></g></svg>